<?xml version="1.0" encoding="UTF-8" standalone="no"?>
<svg
   xmlns:dc="http://purl.org/dc/elements/1.1/"
   xmlns:cc="http://creativecommons.org/ns#"
   xmlns:rdf="http://www.w3.org/1999/02/22-rdf-syntax-ns#"
   xmlns:svg="http://www.w3.org/2000/svg"
   xmlns="http://www.w3.org/2000/svg"
   xmlns:sodipodi="http://sodipodi.sourceforge.net/DTD/sodipodi-0.dtd"
   xmlns:inkscape="http://www.inkscape.org/namespaces/inkscape"
   width="1920"
   height="60"
   version="1.1"
   id="svg5757"
   sodipodi:docname="wip3.svg"
   inkscape:version="0.92.3 (2405546, 2018-03-11)">
  <metadata
     id="metadata5761">
    <rdf:RDF>
      <cc:Work
         rdf:about="">
        <dc:format>image/svg+xml</dc:format>
        <dc:type
           rdf:resource="http://purl.org/dc/dcmitype/StillImage" />
        <dc:title></dc:title>
      </cc:Work>
    </rdf:RDF>
  </metadata>
  <sodipodi:namedview
     pagecolor="#ffffff"
     bordercolor="#666666"
     borderopacity="1"
     objecttolerance="10"
     gridtolerance="10"
     guidetolerance="10"
     inkscape:pageopacity="0"
     inkscape:pageshadow="2"
     inkscape:window-width="3200"
     inkscape:window-height="1690"
     id="namedview5759"
     showgrid="false"
     inkscape:zoom="7.7166666"
     inkscape:cx="1753.9798"
     inkscape:cy="27.83007"
     inkscape:window-x="-12"
     inkscape:window-y="-12"
     inkscape:window-maximized="1"
     inkscape:current-layer="g5755" />
  <!-- Created with SVG-edit - https://github.com/SVG-Edit/svgedit-->
  <defs
     id="defs5719">
    <symbol
       id="svg_4"
       viewBox="0 0 20.007 15.854">
      <g
         id="svg_1">
        <linearGradient
           id="svg_3"
           x1="0.499995"
           x2="0.499995"
           y1="1.00007"
           y2="-0.00003">
          <stop
             offset="0"
             stop-color="#141414"
             id="stop5351" />
          <stop
             offset="0.2088"
             stop-color="#1C1C1D"
             id="stop5353" />
          <stop
             offset="0.5493"
             stop-color="#333335"
             id="stop5355" />
          <stop
             offset="0.9769"
             stop-color="#59595D"
             id="stop5357" />
          <stop
             offset="1"
             stop-color="#5B5B5F"
             id="stop5359" />
        </linearGradient>
        <path
           d="m19.523,8.66c0,0.645 -0.939,1.583 -1.583,1.583l-15.873,0c-0.645,0 -1.583,-0.939 -1.583,-1.583l0,-6.815c0,-0.645 0.939,-1.584 1.583,-1.584l15.872,0c0.645,0 1.583,0.939 1.583,1.584l0,6.815l0.001,0z"
           fill="url(#svg_3)"
           id="svg_7" />
        <linearGradient
           id="svg_2"
           x1="0.50002"
           x2="0.50002"
           y1="1.000038"
           y2="0">
          <stop
             offset="0"
             stop-color="#141414"
             id="stop5363" />
          <stop
             offset="0.2261"
             stop-color="#181818"
             id="stop5365" />
          <stop
             offset="0.4603"
             stop-color="#242425"
             id="stop5367" />
          <stop
             offset="0.6982"
             stop-color="#373739"
             id="stop5369" />
          <stop
             offset="0.9374"
             stop-color="#535356"
             id="stop5371" />
          <stop
             offset="1"
             stop-color="#5B5B5F"
             id="stop5373" />
        </linearGradient>
        <path
           d="m17.939,10.504l-15.872,0c-0.793,0 -1.844,-1.051 -1.844,-1.844l0,-6.815c0,-0.794 1.051,-1.845 1.844,-1.845l15.872,0c0.793,0 1.844,1.051 1.844,1.845l0,6.815c0.001,0.793 -1.051,1.844 -1.844,1.844zm-15.872,-9.983c-0.495,0 -1.323,0.828 -1.323,1.323l0,6.816c0,0.495 0.829,1.323 1.323,1.323l15.872,0c0.495,0 1.323,-0.829 1.323,-1.323l0,-6.815c0,-0.495 -0.829,-1.323 -1.323,-1.323l-15.872,0l0,-0.001z"
           fill="url(#svg_2)"
           id="svg_13" />
      </g>
      <g
         id="svg_25">
        <path
           d="m2.048,13.295c-0.018,-0.177 -0.082,-0.309 -0.193,-0.396c-0.111,-0.087 -0.278,-0.13 -0.5,-0.13c-0.41,0 -0.615,0.141 -0.615,0.422c0,0.101 0.042,0.185 0.127,0.252c0.085,0.068 0.221,0.125 0.409,0.169c0.222,0.052 0.415,0.101 0.578,0.146c0.164,0.045 0.313,0.097 0.449,0.156c0.076,0.031 0.148,0.07 0.216,0.117c0.068,0.047 0.125,0.105 0.172,0.175c0.047,0.069 0.084,0.153 0.112,0.25c0.028,0.098 0.042,0.215 0.042,0.354c0,0.167 -0.034,0.314 -0.104,0.443c-0.069,0.129 -0.164,0.237 -0.281,0.326c-0.118,0.089 -0.257,0.156 -0.417,0.203c-0.16,0.047 -0.329,0.071 -0.505,0.071c-0.504,0 -0.883,-0.098 -1.136,-0.292c-0.255,-0.194 -0.388,-0.482 -0.402,-0.864l0.698,0c0.003,0.177 0.076,0.317 0.216,0.419c0.141,0.103 0.317,0.154 0.529,0.154c0.229,0 0.403,-0.042 0.521,-0.125s0.177,-0.196 0.177,-0.339c0,-0.055 -0.007,-0.107 -0.021,-0.153c-0.014,-0.047 -0.041,-0.09 -0.081,-0.128c-0.039,-0.038 -0.094,-0.072 -0.163,-0.102c-0.07,-0.03 -0.16,-0.057 -0.271,-0.081c-0.265,-0.055 -0.493,-0.112 -0.686,-0.169c-0.193,-0.057 -0.352,-0.128 -0.477,-0.213s-0.217,-0.188 -0.276,-0.31s-0.089,-0.276 -0.089,-0.464c0,-0.143 0.026,-0.276 0.078,-0.401s0.132,-0.233 0.24,-0.326s0.241,-0.165 0.399,-0.219c0.158,-0.054 0.344,-0.081 0.56,-0.081c0.208,0 0.396,0.026 0.563,0.081c0.167,0.054 0.31,0.13 0.43,0.229c0.12,0.099 0.213,0.219 0.279,0.36c0.066,0.141 0.103,0.296 0.109,0.466l-0.687,0z"
           id="svg_26" />
        <path
           d="m3.622,15.734l0,-3.46l2.543,0l0,0.604l-1.84,0l0,0.74l1.693,0l0,0.61l-1.692,0l0,0.891l1.923,0l0,0.615l-2.627,0z"
           id="svg_35" />
        <path
           d="m6.994,15.734l0,-3.46l0.724,0l0,2.83l1.715,0l0,0.63l-2.439,0z"
           id="svg_40" />
        <path
           d="m10.204,15.734l0,-3.46l2.543,0l0,0.604l-1.84,0l0,0.74l1.693,0l0,0.61l-1.693,0l0,0.891l1.923,0l0,0.615l-2.626,0z"
           id="svg_46" />
        <path
           d="m16.625,14.546c-0.038,0.198 -0.099,0.377 -0.182,0.537s-0.188,0.297 -0.315,0.412s-0.273,0.203 -0.44,0.266c-0.167,0.063 -0.351,0.094 -0.553,0.094c-0.226,0 -0.437,-0.039 -0.633,-0.115c-0.196,-0.077 -0.366,-0.191 -0.508,-0.344c-0.143,-0.153 -0.254,-0.342 -0.336,-0.566s-0.123,-0.485 -0.123,-0.784c0,-0.292 0.037,-0.555 0.112,-0.79c0.074,-0.234 0.181,-0.433 0.32,-0.594c0.139,-0.161 0.308,-0.286 0.508,-0.373c0.2,-0.087 0.423,-0.13 0.67,-0.13c0.215,0 0.411,0.032 0.586,0.096s0.327,0.153 0.453,0.266c0.127,0.113 0.228,0.246 0.302,0.399c0.075,0.153 0.121,0.316 0.138,0.49l-0.724,0c-0.049,-0.198 -0.143,-0.352 -0.282,-0.461s-0.295,-0.164 -0.469,-0.164c-0.302,0 -0.525,0.109 -0.667,0.326c-0.142,0.217 -0.213,0.515 -0.213,0.894c0,0.386 0.07,0.686 0.211,0.899c0.141,0.214 0.352,0.321 0.633,0.321c0.215,0 0.388,-0.058 0.519,-0.174s0.22,-0.284 0.269,-0.503l0.724,0l0,-0.002z"
           id="svg_52" />
        <path
           d="m18.235,15.734l0,-2.856l-1.042,0l0,-0.604l2.814,0l0,0.604l-1.047,0l0,2.856l-0.725,0z"
           id="svg_58" />
      </g>
    </symbol>
    <symbol
       id="svg_10"
       viewBox="0 0 20 17.731">
      <g
         id="svg_64">
        <g
           id="svg_69">
          <path
             d="m2.438,14.686c-0.021,-0.212 -0.098,-0.369 -0.229,-0.472c-0.133,-0.104 -0.332,-0.156 -0.596,-0.156c-0.488,0 -0.732,0.168 -0.732,0.502c0,0.121 0.051,0.221 0.152,0.301c0.102,0.081 0.263,0.148 0.487,0.202c0.265,0.062 0.494,0.121 0.689,0.174c0.193,0.053 0.372,0.116 0.533,0.186c0.091,0.037 0.177,0.084 0.257,0.14c0.081,0.056 0.149,0.125 0.205,0.208c0.056,0.082 0.101,0.182 0.133,0.298c0.034,0.116 0.05,0.256 0.05,0.421c0,0.199 -0.042,0.374 -0.124,0.527c-0.083,0.154 -0.195,0.283 -0.335,0.389c-0.141,0.106 -0.306,0.187 -0.496,0.242c-0.19,0.056 -0.391,0.083 -0.602,0.083c-0.599,0 -1.05,-0.116 -1.353,-0.347c-0.301,-0.232 -0.461,-0.575 -0.477,-1.03l0.831,0c0.004,0.211 0.09,0.377 0.257,0.5c0.167,0.121 0.378,0.182 0.63,0.182c0.273,0 0.479,-0.05 0.621,-0.148c0.141,-0.1 0.211,-0.234 0.211,-0.403c0,-0.066 -0.009,-0.127 -0.025,-0.183c-0.016,-0.056 -0.048,-0.106 -0.095,-0.152c-0.048,-0.045 -0.113,-0.086 -0.196,-0.121c-0.083,-0.035 -0.19,-0.067 -0.323,-0.097c-0.314,-0.065 -0.586,-0.133 -0.816,-0.201c-0.229,-0.069 -0.419,-0.154 -0.568,-0.255c-0.148,-0.101 -0.258,-0.224 -0.329,-0.369c-0.07,-0.144 -0.106,-0.329 -0.106,-0.552c0,-0.169 0.032,-0.329 0.094,-0.478c0.062,-0.149 0.157,-0.277 0.285,-0.388c0.128,-0.11 0.287,-0.197 0.475,-0.261c0.188,-0.063 0.411,-0.096 0.667,-0.096c0.249,0 0.472,0.032 0.67,0.096c0.199,0.064 0.37,0.156 0.512,0.273c0.143,0.118 0.253,0.261 0.332,0.429c0.079,0.167 0.123,0.352 0.131,0.555l-0.82,0l0,0.001z"
             id="svg_74" />
          <path
             d="m5.391,17.589l0,-3.4l-1.241,0l0,-0.72l3.35,0l0,0.72l-1.247,0l0,3.4l-0.862,0z"
             id="svg_79" />
          <path
             d="m10.329,17.589l-0.26,-0.85l-1.521,0l-0.291,0.85l-0.912,0l1.47,-4.12l0.999,0l1.451,4.12l-0.936,0zm-1.024,-3.194l-0.006,0l-0.527,1.637l1.047,0l-0.514,-1.637z"
             id="svg_91" />
          <path
             d="m14.721,17.589l0,-1.061c0,-0.199 -0.046,-0.34 -0.136,-0.425c-0.092,-0.085 -0.261,-0.127 -0.509,-0.127l-0.918,0l0,1.613l-0.838,0l0,-4.12l2.09,0c0.19,0 0.363,0.031 0.518,0.09c0.155,0.06 0.289,0.143 0.401,0.249c0.111,0.104 0.197,0.231 0.257,0.378c0.06,0.146 0.09,0.305 0.09,0.474c0,0.224 -0.053,0.422 -0.158,0.593c-0.105,0.171 -0.258,0.292 -0.456,0.362c0.182,0.058 0.312,0.147 0.388,0.267c0.076,0.12 0.115,0.301 0.115,0.54l0,1.167l-0.844,0zm-1.563,-3.406l0,1.098l1.079,0c0.232,0 0.396,-0.052 0.49,-0.155c0.095,-0.103 0.143,-0.233 0.143,-0.391c0,-0.161 -0.047,-0.293 -0.14,-0.397c-0.093,-0.103 -0.248,-0.155 -0.462,-0.155l-1.11,0z"
             id="svg_103" />
          <path
             d="m17.891,17.589l0,-3.4l-1.24,0l0,-0.72l3.349,0l0,0.72l-1.247,0l0,3.4l-0.862,0z"
             id="svg_127" />
        </g>
        <g
           id="svg_128">
          <linearGradient
             id="svg_9"
             x1="0.500027"
             x2="0.500027"
             y1="1.000008"
             y2="-0.000034">
            <stop
               offset="0"
               stop-color="#141414"
               id="stop5392" />
            <stop
               offset="0.2088"
               stop-color="#1C1C1D"
               id="stop5394" />
            <stop
               offset="0.5493"
               stop-color="#333335"
               id="stop5396" />
            <stop
               offset="0.9769"
               stop-color="#59595D"
               id="stop5398" />
            <stop
               offset="1"
               stop-color="#5B5B5F"
               id="stop5400" />
          </linearGradient>
          <path
             d="m3.091,12.247c-0.582,0 -0.987,-0.445 -0.987,-1.083l0,-9.752c0,-0.639 0.406,-1.083 0.987,-1.083c0.16,0 0.325,0.034 0.493,0.101l12.859,5.172c0.542,0.217 0.623,0.523 0.623,0.686c0,0.163 -0.081,0.468 -0.623,0.686l-12.859,5.172c-0.168,0.067 -0.333,0.101 -0.493,0.101z"
             fill="url(#svg_9)"
             id="svg_129" />
          <linearGradient
             id="svg_8"
             x1="0.500019"
             x2="0.500019"
             y1="1.000031"
             y2="0">
            <stop
               offset="0"
               stop-color="#141414"
               id="stop5404" />
            <stop
               offset="0.2261"
               stop-color="#181818"
               id="stop5406" />
            <stop
               offset="0.4603"
               stop-color="#242425"
               id="stop5408" />
            <stop
               offset="0.6982"
               stop-color="#373739"
               id="stop5410" />
            <stop
               offset="0.9374"
               stop-color="#535356"
               id="stop5412" />
            <stop
               offset="1"
               stop-color="#5B5B5F"
               id="stop5414" />
          </linearGradient>
          <path
             d="m2.872,12.607c-0.607,0 -1.031,-0.47 -1.031,-1.145l0,-10.317c0,-0.674 0.424,-1.145 1.031,-1.145c0.167,0 0.34,0.036 0.513,0.106l13.43,5.471c0.566,0.231 0.651,0.554 0.651,0.727c0,0.171 -0.085,0.495 -0.651,0.726l-13.43,5.47c-0.173,0.072 -0.346,0.107 -0.513,0.107zm0,-12.077c-0.309,0 -0.501,0.235 -0.501,0.615l0,10.317c0,0.379 0.192,0.615 0.501,0.615c0.098,0 0.203,-0.023 0.313,-0.068l13.429,-5.472c0.265,-0.107 0.321,-0.213 0.321,-0.234c0,-0.021 -0.057,-0.127 -0.321,-0.235l-13.428,-5.47c-0.111,-0.045 -0.216,-0.068 -0.314,-0.068z"
             fill="url(#svg_8)"
             id="svg_130" />
        </g>
      </g>
    </symbol>
    <symbol
       id="svg_22"
       viewBox="0 0 20 19.841">
      <g
         id="svg_131">
        <g
           id="svg_132">
          <linearGradient
             id="svg_21"
             x1="0.499965"
             x2="0.499965"
             y1="0.999985"
             y2="-0.00003">
            <stop
               offset="0.3"
               stop-color="#0044A1"
               id="stop5421" />
            <stop
               offset="1"
               stop-color="#5FB1DA"
               id="stop5423" />
          </linearGradient>
          <path
             d="m5.55,6.589l2.971,3.332l-2.971,3.332l-4.436,0c-0.615,0 -1.114,-0.5 -1.114,-1.115l0,-4.436c0,-0.615 0.499,-1.113 1.114,-1.113l4.436,0z"
             fill="url(#svg_21)"
             id="svg_133" />
          <linearGradient
             id="svg_20"
             x1="0.500023"
             x2="0.500023"
             y1="0.999985"
             y2="-0.000015">
            <stop
               offset="0.3"
               stop-color="#1B388A"
               id="stop5427" />
            <stop
               offset="1"
               stop-color="#5FB1DA"
               id="stop5429" />
          </linearGradient>
          <path
             d="m5.259,7.238l2.391,2.683l-2.392,2.682l-4.144,0c-0.256,0 -0.464,-0.208 -0.464,-0.465l0,-4.436c0,-0.256 0.208,-0.464 0.464,-0.464l4.145,0m0.291,-0.649l-4.436,0c-0.615,0 -1.114,0.498 -1.114,1.113l0,4.436c0,0.615 0.499,1.115 1.114,1.115l4.436,0l2.971,-3.332l-2.971,-3.332l0,0z"
             fill="url(#svg_20)"
             id="svg_134" />
        </g>
        <g
           id="svg_135">
          <linearGradient
             id="svg_19"
             x1="0.5"
             x2="0.5"
             y1="0.999941"
             y2="0.000057">
            <stop
               offset="0.3"
               stop-color="#1E1E1E"
               id="stop5434" />
            <stop
               offset="1"
               stop-color="#5B5B5F"
               id="stop5436" />
          </linearGradient>
          <path
             d="m13.333,5.55l-3.333,2.971l-3.333,-2.971l0,-4.436c0,-0.615 0.5,-1.114 1.115,-1.114l4.436,0c0.615,0 1.115,0.499 1.115,1.114l0,4.436z"
             fill="url(#svg_19)"
             id="svg_136" />
          <linearGradient
             id="svg_18"
             x1="0.5"
             x2="0.5"
             y1="0.999941"
             y2="0.000057">
            <stop
               offset="0"
               stop-color="#141414"
               id="stop5440" />
            <stop
               offset="0.2261"
               stop-color="#181818"
               id="stop5442" />
            <stop
               offset="0.4603"
               stop-color="#242425"
               id="stop5444" />
            <stop
               offset="0.6982"
               stop-color="#373739"
               id="stop5446" />
            <stop
               offset="0.9374"
               stop-color="#535356"
               id="stop5448" />
            <stop
               offset="1"
               stop-color="#5B5B5F"
               id="stop5450" />
          </linearGradient>
          <path
             d="m12.218,0.65c0.256,0 0.465,0.208 0.465,0.464l0,4.145l-2.683,2.39l-2.683,-2.39l0,-4.145c0,-0.256 0.209,-0.464 0.465,-0.464l4.436,0m0,-0.65l-4.436,0c-0.615,0 -1.115,0.499 -1.115,1.114l0,4.436l3.333,2.971l3.333,-2.971l0,-4.436c0,-0.615 -0.5,-1.114 -1.115,-1.114l0,0z"
             fill="url(#svg_18)"
             id="svg_137" />
        </g>
        <g
           id="svg_138">
          <linearGradient
             id="svg_17"
             x1="0.50015"
             x2="0.50015"
             y1="0.999976"
             y2="0.000034">
            <stop
               offset="0.3"
               stop-color="#1E1E1E"
               id="stop5455" />
            <stop
               offset="1"
               stop-color="#5B5B5F"
               id="stop5457" />
          </linearGradient>
          <path
             d="m6.667,14.291l3.333,-2.97l3.333,2.97l0,4.436c0,0.616 -0.5,1.114 -1.115,1.114l-4.436,0c-0.615,0 -1.115,-0.498 -1.115,-1.114l0,-4.436z"
             fill="url(#svg_17)"
             id="svg_139" />
          <linearGradient
             id="svg_16"
             x1="0.5"
             x2="0.5"
             y1="0.999977"
             y2="0.000035">
            <stop
               offset="0"
               stop-color="#141414"
               id="stop5461" />
            <stop
               offset="0.2261"
               stop-color="#181818"
               id="stop5463" />
            <stop
               offset="0.4603"
               stop-color="#242425"
               id="stop5465" />
            <stop
               offset="0.6982"
               stop-color="#373739"
               id="stop5467" />
            <stop
               offset="0.9374"
               stop-color="#535356"
               id="stop5469" />
            <stop
               offset="1"
               stop-color="#5B5B5F"
               id="stop5471" />
          </linearGradient>
          <path
             d="m10,12.19l2.683,2.392l0,4.145c0,0.257 -0.209,0.464 -0.465,0.464l-4.436,0c-0.256,0 -0.465,-0.207 -0.465,-0.464l0,-4.145l2.683,-2.392m0,-0.869l-3.333,2.97l0,4.436c0,0.616 0.5,1.114 1.115,1.114l4.436,0c0.615,0 1.115,-0.498 1.115,-1.114l0,-4.436l-3.333,-2.97l0,0z"
             fill="url(#svg_16)"
             id="svg_140" />
        </g>
        <g
           id="svg_141">
          <linearGradient
             id="svg_15"
             x1="0.500023"
             x2="0.500023"
             y1="1.00006"
             y2="0.00006">
            <stop
               offset="0.3"
               stop-color="#1E1E1E"
               id="stop5476" />
            <stop
               offset="1"
               stop-color="#5B5B5F"
               id="stop5478" />
          </linearGradient>
          <path
             d="m14.45,13.253l-2.971,-3.332l2.971,-3.332l4.436,0c0.615,0 1.113,0.498 1.113,1.113l0,4.436c0,0.615 -0.498,1.115 -1.113,1.115l-4.436,0z"
             fill="url(#svg_15)"
             id="svg_142" />
          <linearGradient
             id="svg_14"
             x1="0.500035"
             x2="0.500035"
             y1="0.999985"
             y2="-0.000015">
            <stop
               offset="0"
               stop-color="#141414"
               id="stop5482" />
            <stop
               offset="0.2325"
               stop-color="#181818"
               id="stop5484" />
            <stop
               offset="0.4734"
               stop-color="#242425"
               id="stop5486" />
            <stop
               offset="0.7181"
               stop-color="#373739"
               id="stop5488" />
            <stop
               offset="0.9641"
               stop-color="#525256"
               id="stop5490" />
            <stop
               offset="1"
               stop-color="#57575B"
               id="stop5492" />
          </linearGradient>
          <path
             d="m18.886,7.238c0.256,0 0.465,0.208 0.465,0.464l0,4.436c0,0.256 -0.209,0.465 -0.465,0.465l-4.145,0l-2.391,-2.682l2.391,-2.683l4.145,0m0,-0.649l-4.436,0l-2.971,3.332l2.971,3.332l4.436,0c0.615,0 1.113,-0.5 1.113,-1.115l0,-4.436c0,-0.615 -0.498,-1.113 -1.113,-1.113l0,0z"
             fill="url(#svg_14)"
             id="svg_143" />
        </g>
      </g>
    </symbol>
    <symbol
       id="svg_37"
       viewBox="0 0 19.996 19.995">
      <g
         display="none"
         id="svg_160">
        <path
           d="m158.14,70.903c23.665,0 42.917,19.252 42.917,42.917c0,23.664 -19.252,42.917 -42.917,42.917c-23.665,0 -42.918,-19.253 -42.918,-42.917c0,-23.664 19.253,-42.917 42.918,-42.917m0,-14c-31.434,0 -56.918,25.483 -56.918,56.917c0,31.435 25.484,56.917 56.918,56.917c31.434,0 56.917,-25.482 56.917,-56.917c0,-31.433 -25.483,-56.917 -56.917,-56.917l0,0z"
           fill="#CC3366"
           id="svg_161" />
      </g>
      <g
         id="svg_162">
        <g
           id="svg_163">
          <linearGradient
             id="svg_36"
             x1="0.5"
             x2="0.5"
             y1="0"
             y2="0.894979">
            <stop
               offset="0"
               stop-color="#5B5B5F"
               id="stop5501" />
            <stop
               offset="0.0231"
               stop-color="#59595D"
               id="stop5503" />
            <stop
               offset="0.4507"
               stop-color="#333335"
               id="stop5505" />
            <stop
               offset="0.7912"
               stop-color="#1C1C1D"
               id="stop5507" />
            <stop
               offset="1"
               stop-color="#141414"
               id="stop5509" />
          </linearGradient>
          <circle
             cx="9.998"
             cy="9.998"
             fill="url(#svg_36)"
             id="svg_164"
             r="9.998" />
        </g>
        <path
           d="m9.998,5.177c2.658,0 4.82,2.163 4.82,4.82s-2.162,4.82 -4.82,4.82c-2.658,0 -4.819,-2.163 -4.819,-4.82s2.161,-4.82 4.819,-4.82m0,-1.884c-3.703,0 -6.705,3.002 -6.705,6.705c0,3.703 3.002,6.705 6.705,6.705c3.704,0 6.706,-3.002 6.706,-6.705c0,-3.703 -3.002,-6.705 -6.706,-6.705l0,0z"
           fill="#CC3333"
           id="svg_165" />
      </g>
    </symbol>
    <symbol
       id="svg_43"
       viewBox="0 0 20 12.473">
      <g
         id="svg_166">
        <g
           id="svg_167">
          <linearGradient
             id="svg_42"
             x1="0.5"
             x2="0.5"
             y1="0"
             y2="0.894989">
            <stop
               offset="0"
               stop-color="#5B5B5F"
               id="stop5517" />
            <stop
               offset="0.0626"
               stop-color="#535356"
               id="stop5519" />
            <stop
               offset="0.3018"
               stop-color="#373739"
               id="stop5521" />
            <stop
               offset="0.5397"
               stop-color="#242425"
               id="stop5523" />
            <stop
               offset="0.7739"
               stop-color="#181818"
               id="stop5525" />
            <stop
               offset="1"
               stop-color="#141414"
               id="stop5527" />
          </linearGradient>
          <path
             d="m20,9.91c0,1.415 -1.147,2.563 -2.562,2.563l-14.876,0c-1.415,0 -2.562,-1.148 -2.562,-2.563l0,-7.347c0,-1.416 1.147,-2.563 2.562,-2.563l14.877,0c1.414,0 2.561,1.147 2.561,2.563l0,7.347z"
             fill="url(#svg_42)"
             id="svg_168" />
          <linearGradient
             id="svg_41"
             x1="0.499975"
             x2="0.499975"
             y1="0"
             y2="0.999976">
            <stop
               offset="0"
               stop-color="#5B5B5F"
               id="stop5531" />
            <stop
               offset="0.0155"
               stop-color="#58585B"
               id="stop5533" />
            <stop
               offset="0.1488"
               stop-color="#3F3F41"
               id="stop5535" />
            <stop
               offset="0.296"
               stop-color="#2C2C2D"
               id="stop5537" />
            <stop
               offset="0.4624"
               stop-color="#1E1E1F"
               id="stop5539" />
            <stop
               offset="0.6643"
               stop-color="#161617"
               id="stop5541" />
            <stop
               offset="1"
               stop-color="#141414"
               id="stop5543" />
          </linearGradient>
          <path
             d="m17.438,1.512c0.579,0 1.051,0.472 1.051,1.051l0,7.347c0,0.58 -0.472,1.051 -1.051,1.051l-14.876,0c-0.579,0 -1.051,-0.471 -1.051,-1.051l0,-7.347c0,-0.579 0.472,-1.051 1.051,-1.051l14.876,0m0,-1.512l-14.876,0c-1.415,0 -2.562,1.147 -2.562,2.563l0,7.347c0,1.415 1.147,2.563 2.562,2.563l14.877,0c1.414,0 2.562,-1.147 2.562,-2.563l0,-7.347c-0.001,-1.416 -1.148,-2.563 -2.563,-2.563l0,0z"
             fill="url(#svg_41)"
             id="svg_169" />
        </g>
        <g
           id="svg_170">
          <polygon
             fill="#FFFFFF"
             id="svg_171"
             points="7.57,2.477 5.697,2.477 5.697,9.996 11.108,9.996 11.108,8.316 7.57,8.316   " />
          <path
             d="m12.804,2.477l-0.018,0.17c-0.02,0.187 -0.06,0.351 -0.119,0.485c-0.057,0.127 -0.137,0.23 -0.245,0.315c-0.11,0.087 -0.259,0.152 -0.438,0.196c-0.192,0.046 -0.438,0.07 -0.73,0.07l-0.189,0l0,1.347l1.463,0l0,4.937l1.776,0l0,-7.52l-1.5,0z"
             fill="#FFFFFF"
             id="svg_172" />
        </g>
      </g>
    </symbol>
    <symbol
       id="svg_49"
       viewBox="0 0 20 14.949">
      <g
         id="svg_173">
        <g
           id="svg_174">
          <linearGradient
             id="svg_48"
             x1="0.5"
             x2="0.5"
             y1="0"
             y2="0.895003">
            <stop
               offset="0"
               stop-color="#5B5B5F"
               id="stop5553" />
            <stop
               offset="0.0626"
               stop-color="#535356"
               id="stop5555" />
            <stop
               offset="0.3018"
               stop-color="#373739"
               id="stop5557" />
            <stop
               offset="0.5397"
               stop-color="#242425"
               id="stop5559" />
            <stop
               offset="0.7739"
               stop-color="#181818"
               id="stop5561" />
            <stop
               offset="1"
               stop-color="#141414"
               id="stop5563" />
          </linearGradient>
          <path
             d="m20,10.746c0,5.604 -20,5.604 -20,0l0,-8.183c0,-1.416 1.147,-2.563 2.562,-2.563l14.877,0c1.414,0 2.561,1.147 2.561,2.563l0,8.183z"
             fill="url(#svg_48)"
             id="svg_175" />
          <linearGradient
             id="svg_47"
             x1="0.5"
             x2="0.5"
             y1="0"
             y2="0.999947">
            <stop
               offset="0"
               stop-color="#5B5B5F"
               id="stop5567" />
            <stop
               offset="0.0155"
               stop-color="#58585B"
               id="stop5569" />
            <stop
               offset="0.1488"
               stop-color="#3F3F41"
               id="stop5571" />
            <stop
               offset="0.296"
               stop-color="#2C2C2D"
               id="stop5573" />
            <stop
               offset="0.4624"
               stop-color="#1E1E1F"
               id="stop5575" />
            <stop
               offset="0.6643"
               stop-color="#161617"
               id="stop5577" />
            <stop
               offset="1"
               stop-color="#141414"
               id="stop5579" />
          </linearGradient>
          <path
             d="m17.438,1.512c0.579,0 1.051,0.471 1.051,1.051l0,8.184c0,0.586 -0.802,1.235 -2.143,1.736c-1.625,0.607 -3.938,0.955 -6.347,0.955c-2.409,0 -4.722,-0.348 -6.347,-0.955c-1.342,-0.501 -2.143,-1.15 -2.143,-1.736l0,-8.184c0,-0.58 0.472,-1.051 1.051,-1.051l14.878,0m0,-1.512l-14.876,0c-1.415,0 -2.562,1.147 -2.562,2.563l0,8.184c0,2.802 5,4.203 10,4.203s10,-1.401 10,-4.203l0,-8.184c0,-1.416 -1.147,-2.563 -2.562,-2.563l0,0z"
             fill="url(#svg_47)"
             id="svg_176" />
        </g>
        <g
           id="svg_177">
          <polygon
             fill="#FFFFFF"
             id="svg_178"
             points="6.381,2.7 4.509,2.7 4.509,10.22 9.919,10.22 9.919,8.54 6.381,8.54   " />
          <path
             d="m12.471,8.626c0.044,-0.099 0.112,-0.206 0.205,-0.322c0.175,-0.219 0.396,-0.427 0.651,-0.615c0.381,-0.273 0.711,-0.526 0.979,-0.751c0.275,-0.23 0.5,-0.462 0.67,-0.688c0.173,-0.23 0.301,-0.47 0.379,-0.711c0.076,-0.24 0.116,-0.51 0.116,-0.801c0,-0.376 -0.065,-0.712 -0.194,-0.997c-0.131,-0.287 -0.314,-0.529 -0.548,-0.72c-0.23,-0.187 -0.51,-0.329 -0.831,-0.422c-0.313,-0.091 -0.662,-0.137 -1.036,-0.137c-0.79,0 -1.413,0.239 -1.854,0.711c-0.437,0.468 -0.658,1.121 -0.658,1.941l0,0.188l1.722,0l0,-0.187c0,-0.42 0.078,-0.717 0.224,-0.86c0.151,-0.147 0.357,-0.22 0.632,-0.22c0.119,0 0.235,0.013 0.344,0.038c0.095,0.022 0.174,0.06 0.242,0.114c0.064,0.052 0.115,0.122 0.152,0.214c0.041,0.1 0.062,0.228 0.062,0.38c0,0.13 -0.019,0.251 -0.056,0.36c-0.035,0.108 -0.098,0.22 -0.184,0.331c-0.092,0.118 -0.219,0.246 -0.377,0.381c-0.164,0.139 -0.374,0.298 -0.628,0.475c-0.466,0.334 -0.847,0.652 -1.133,0.946c-0.29,0.298 -0.52,0.597 -0.681,0.89c-0.164,0.296 -0.275,0.602 -0.332,0.906c-0.057,0.297 -0.084,0.62 -0.084,0.96l0,0.189l5.238,0l0,-1.593l-3.02,0z"
             fill="#FFFFFF"
             id="svg_179" />
        </g>
      </g>
    </symbol>
    <symbol
       id="svg_61"
       viewBox="0 0 20 14.949">
      <g
         id="svg_187">
        <g
           id="svg_188">
          <linearGradient
             id="svg_60"
             x1="0.5"
             x2="0.5"
             y1="0"
             y2="0.895003">
            <stop
               offset="0"
               stop-color="#5B5B5F"
               id="stop5589" />
            <stop
               offset="0.0626"
               stop-color="#535356"
               id="stop5591" />
            <stop
               offset="0.3018"
               stop-color="#373739"
               id="stop5593" />
            <stop
               offset="0.5397"
               stop-color="#242425"
               id="stop5595" />
            <stop
               offset="0.7739"
               stop-color="#181818"
               id="stop5597" />
            <stop
               offset="1"
               stop-color="#141414"
               id="stop5599" />
          </linearGradient>
          <path
             d="m20,10.746c0,5.604 -20,5.604 -20,0l0,-8.183c0,-1.416 1.146,-2.563 2.562,-2.563l14.876,0c1.416,0 2.562,1.147 2.562,2.563l0,8.183z"
             fill="url(#svg_60)"
             id="svg_189" />
          <linearGradient
             id="svg_59"
             x1="0.5"
             x2="0.5"
             y1="0"
             y2="0.999947">
            <stop
               offset="0"
               stop-color="#5B5B5F"
               id="stop5603" />
            <stop
               offset="0.0155"
               stop-color="#58585B"
               id="stop5605" />
            <stop
               offset="0.1488"
               stop-color="#3F3F41"
               id="stop5607" />
            <stop
               offset="0.296"
               stop-color="#2C2C2D"
               id="stop5609" />
            <stop
               offset="0.4624"
               stop-color="#1E1E1F"
               id="stop5611" />
            <stop
               offset="0.6643"
               stop-color="#161617"
               id="stop5613" />
            <stop
               offset="1"
               stop-color="#141414"
               id="stop5615" />
          </linearGradient>
          <path
             d="m17.438,1.512c0.58,0 1.051,0.471 1.051,1.051l0,8.184c0,0.586 -0.801,1.235 -2.143,1.736c-1.625,0.607 -3.938,0.955 -6.346,0.955s-4.722,-0.348 -6.346,-0.955c-1.342,-0.501 -2.143,-1.15 -2.143,-1.736l0,-8.184c0,-0.58 0.471,-1.051 1.05,-1.051l14.877,0m0,-1.512l-14.876,0c-1.416,0 -2.562,1.147 -2.562,2.563l0,8.184c0,2.802 5,4.203 10,4.203s10,-1.401 10,-4.203l0,-8.184c0,-1.416 -1.146,-2.563 -2.562,-2.563l0,0z"
             fill="url(#svg_59)"
             id="svg_190" />
        </g>
        <g
           id="svg_191">
          <path
             d="m10.082,6.08c0.201,-0.326 0.303,-0.705 0.303,-1.126c0,-0.317 -0.057,-0.618 -0.17,-0.895c-0.113,-0.278 -0.279,-0.521 -0.491,-0.722c-0.211,-0.198 -0.465,-0.357 -0.756,-0.469c-0.29,-0.111 -0.614,-0.168 -0.966,-0.168l-3.814,0l0,7.519l1.829,0l0,-2.796l1.403,0c0.472,0 0.67,0.093 0.753,0.17c0.117,0.109 0.177,0.311 0.177,0.599l0,2.027l1.841,0l0,-2.211c0,-0.456 -0.075,-0.796 -0.229,-1.037c-0.093,-0.146 -0.222,-0.269 -0.387,-0.368c0.206,-0.134 0.376,-0.309 0.507,-0.523zm-4.064,-1.766l1.736,0c0.316,0 0.538,0.069 0.662,0.206c0.129,0.145 0.193,0.33 0.193,0.563c0,0.226 -0.064,0.405 -0.197,0.55c-0.128,0.138 -0.367,0.208 -0.711,0.208l-1.683,0l0,-1.527z"
             fill="#FFFFFF"
             id="svg_192" />
          <path
             d="m12.791,8.626c0.043,-0.099 0.111,-0.206 0.205,-0.322c0.174,-0.22 0.395,-0.427 0.65,-0.615c0.381,-0.273 0.711,-0.526 0.979,-0.751c0.275,-0.23 0.501,-0.462 0.67,-0.688c0.174,-0.23 0.301,-0.47 0.379,-0.711c0.077,-0.24 0.116,-0.51 0.116,-0.801c0,-0.376 -0.065,-0.712 -0.194,-0.997c-0.13,-0.287 -0.314,-0.529 -0.548,-0.72c-0.229,-0.188 -0.509,-0.329 -0.83,-0.422c-0.313,-0.091 -0.662,-0.137 -1.036,-0.137c-0.79,0 -1.414,0.239 -1.854,0.711c-0.438,0.468 -0.659,1.121 -0.659,1.941l0,0.188l1.723,0l0,-0.187c0,-0.42 0.077,-0.717 0.223,-0.86c0.151,-0.148 0.357,-0.22 0.632,-0.22c0.12,0 0.236,0.013 0.344,0.038c0.095,0.021 0.174,0.06 0.242,0.113c0.064,0.053 0.115,0.123 0.153,0.215c0.04,0.1 0.062,0.228 0.062,0.38c0,0.13 -0.02,0.251 -0.055,0.36c-0.037,0.107 -0.099,0.219 -0.186,0.331c-0.092,0.118 -0.219,0.246 -0.377,0.381c-0.163,0.139 -0.374,0.298 -0.627,0.475c-0.467,0.334 -0.848,0.652 -1.134,0.946c-0.29,0.298 -0.519,0.597 -0.681,0.89c-0.163,0.296 -0.274,0.601 -0.332,0.906c-0.056,0.297 -0.084,0.62 -0.084,0.96l0,0.188l5.239,0l0,-1.592l-3.02,0z"
             fill="#FFFFFF"
             id="svg_193" />
        </g>
      </g>
    </symbol>
    <symbol
       id="svg_76"
       viewBox="0 0 20.123 20.122">
      <g
         id="svg_201">
        <g
           id="svg_202">
          <linearGradient
             id="svg_75"
             x1="0.500025"
             x2="0.500025"
             y1="0"
             y2="0.895001">
            <stop
               offset="0"
               stop-color="#5B5B5F"
               id="stop5625" />
            <stop
               offset="0.0231"
               stop-color="#59595D"
               id="stop5627" />
            <stop
               offset="0.4507"
               stop-color="#333335"
               id="stop5629" />
            <stop
               offset="0.7912"
               stop-color="#1C1C1D"
               id="stop5631" />
            <stop
               offset="1"
               stop-color="#141414"
               id="stop5633" />
          </linearGradient>
          <circle
             cx="10.061"
             cy="10.061"
             fill="url(#svg_75)"
             id="svg_203"
             r="10.061" />
        </g>
        <polygon
           fill="#6273A8"
           id="svg_204"
           points="16.107,5.608 14.514,4.015 10.061,8.468 5.608,4.015 4.016,5.608 8.469,10.061 4.016,14.514    5.608,16.106 10.061,11.653 14.514,16.106 16.107,14.514 11.654,10.061  " />
      </g>
    </symbol>
    <symbol
       id="svg_88"
       viewBox="0 0 20.005 19.846">
      <g
         id="svg_205">
        <g
           id="svg_206">
          <linearGradient
             id="svg_87"
             x1="0.500023"
             x2="0.500023"
             y1="1.000135"
             y2="0.00012">
            <stop
               offset="0.3"
               stop-color="#0044A1"
               id="stop5641" />
            <stop
               offset="1"
               stop-color="#5FB1DA"
               id="stop5643" />
          </linearGradient>
          <path
             d="m14.453,13.255l-2.971,-3.333l2.971,-3.332l4.437,0c0.615,0 1.115,0.498 1.115,1.114l0,4.437c0,0.615 -0.5,1.114 -1.115,1.114l-4.437,0z"
             fill="url(#svg_87)"
             id="svg_207" />
          <linearGradient
             id="svg_86"
             x1="0.499965"
             x2="0.499965"
             y1="1.00006"
             y2="0.000045">
            <stop
               offset="0.3"
               stop-color="#1B388A"
               id="stop5647" />
            <stop
               offset="1"
               stop-color="#5FB1DA"
               id="stop5649" />
          </linearGradient>
          <path
             d="m18.89,7.241c0.256,0 0.465,0.208 0.465,0.464l0,4.437c0,0.256 -0.209,0.465 -0.465,0.465l-4.145,0l-2.393,-2.684l2.393,-2.682l4.145,0m0,-0.651l-4.437,0l-2.971,3.332l2.971,3.333l4.437,0c0.615,0 1.115,-0.499 1.115,-1.114l0,-4.436c0,-0.617 -0.5,-1.115 -1.115,-1.115l0,0z"
             fill="url(#svg_86)"
             id="svg_208" />
        </g>
        <g
           id="svg_209">
          <linearGradient
             id="svg_85"
             x1="0.5"
             x2="0.5"
             y1="1"
             y2="0.000057">
            <stop
               offset="0.3"
               stop-color="#1E1E1E"
               id="stop5654" />
            <stop
               offset="1"
               stop-color="#5B5B5F"
               id="stop5656" />
          </linearGradient>
          <path
             d="m13.335,5.551l-3.332,2.971l-3.334,-2.971l0,-4.437c0,-0.615 0.5,-1.114 1.115,-1.114l4.437,0c0.615,0 1.114,0.499 1.114,1.114l0,4.437z"
             fill="url(#svg_85)"
             id="svg_210" />
          <linearGradient
             id="svg_84"
             x1="0.5"
             x2="0.5"
             y1="1"
             y2="0.000057">
            <stop
               offset="0"
               stop-color="#141414"
               id="stop5660" />
            <stop
               offset="0.2261"
               stop-color="#181818"
               id="stop5662" />
            <stop
               offset="0.4603"
               stop-color="#242425"
               id="stop5664" />
            <stop
               offset="0.6982"
               stop-color="#373739"
               id="stop5666" />
            <stop
               offset="0.9374"
               stop-color="#535356"
               id="stop5668" />
            <stop
               offset="1"
               stop-color="#5B5B5F"
               id="stop5670" />
          </linearGradient>
          <path
             d="m12.221,0.65c0.256,0 0.464,0.208 0.464,0.464l0,4.146l-2.682,2.392l-2.684,-2.392l0,-4.146c0,-0.256 0.209,-0.464 0.465,-0.464l4.437,0m0,-0.65l-4.437,0c-0.615,0 -1.115,0.499 -1.115,1.114l0,4.437l3.334,2.971l3.332,-2.971l0,-4.437c0,-0.615 -0.499,-1.114 -1.114,-1.114l0,0z"
             fill="url(#svg_84)"
             id="svg_211" />
        </g>
        <g
           id="svg_212">
          <linearGradient
             id="svg_83"
             x1="0.50015"
             x2="0.50015"
             y1="1.000022"
             y2="0.000093">
            <stop
               offset="0.3"
               stop-color="#1E1E1E"
               id="stop5675" />
            <stop
               offset="1"
               stop-color="#5B5B5F"
               id="stop5677" />
          </linearGradient>
          <path
             d="m6.669,14.294l3.333,-2.972l3.333,2.972l0,4.437c0,0.615 -0.499,1.115 -1.114,1.115l-4.437,0c-0.615,0 -1.115,-0.5 -1.115,-1.115l0,-4.437z"
             fill="url(#svg_83)"
             id="svg_213" />
          <linearGradient
             id="svg_82"
             x1="0.5"
             x2="0.5"
             y1="0.999906"
             y2="-0.000023">
            <stop
               offset="0"
               stop-color="#141414"
               id="stop5681" />
            <stop
               offset="0.2261"
               stop-color="#181818"
               id="stop5683" />
            <stop
               offset="0.4603"
               stop-color="#242425"
               id="stop5685" />
            <stop
               offset="0.6982"
               stop-color="#373739"
               id="stop5687" />
            <stop
               offset="0.9374"
               stop-color="#535356"
               id="stop5689" />
            <stop
               offset="1"
               stop-color="#5B5B5F"
               id="stop5691" />
          </linearGradient>
          <path
             d="m10.002,12.194l2.683,2.393l0,4.145c0,0.256 -0.208,0.465 -0.464,0.465l-4.437,0c-0.256,0 -0.465,-0.209 -0.465,-0.465l0,-4.145l2.683,-2.393m0,-0.871l-3.333,2.972l0,4.437c0,0.615 0.5,1.115 1.115,1.115l4.437,0c0.615,0 1.114,-0.5 1.114,-1.115l0,-4.437l-3.333,-2.972l0,0z"
             fill="url(#svg_82)"
             id="svg_214" />
        </g>
        <g
           id="svg_215">
          <linearGradient
             id="svg_81"
             x1="0.499965"
             x2="0.499965"
             y1="1.00006"
             y2="0.000045">
            <stop
               offset="0.3"
               stop-color="#1E1E1E"
               id="stop5696" />
            <stop
               offset="1"
               stop-color="#5B5B5F"
               id="stop5698" />
          </linearGradient>
          <path
             d="m5.552,6.59l2.971,3.332l-2.971,3.333l-4.438,0c-0.615,0 -1.114,-0.499 -1.114,-1.114l0,-4.436c0,-0.617 0.499,-1.115 1.114,-1.115l4.438,0z"
             fill="url(#svg_81)"
             id="svg_216" />
          <linearGradient
             id="svg_80"
             x1="0.499906"
             x2="0.499906"
             y1="0.99991"
             y2="0.000045">
            <stop
               offset="0"
               stop-color="#141414"
               id="stop5702" />
            <stop
               offset="0.2261"
               stop-color="#181818"
               id="stop5704" />
            <stop
               offset="0.4603"
               stop-color="#242425"
               id="stop5706" />
            <stop
               offset="0.6982"
               stop-color="#373739"
               id="stop5708" />
            <stop
               offset="0.9374"
               stop-color="#535356"
               id="stop5710" />
            <stop
               offset="1"
               stop-color="#5B5B5F"
               id="stop5712" />
          </linearGradient>
          <path
             d="m5.26,7.241l2.392,2.682l-2.392,2.683l-4.146,0c-0.256,0 -0.465,-0.209 -0.465,-0.465l0,-4.436c0,-0.257 0.209,-0.464 0.465,-0.464l4.146,0m0.292,-0.651l-4.438,0c-0.615,0 -1.114,0.498 -1.114,1.115l0,4.437c0,0.615 0.499,1.114 1.114,1.114l4.438,0l2.971,-3.333l-2.971,-3.333l0,0z"
             fill="url(#svg_80)"
             id="svg_217" />
        </g>
      </g>
    </symbol>
  </defs>
  <g
     class="layer"
     display="inline"
     id="g5755">
    <title
       id="title5721">Layer 1</title>
    <g
       id="svg_6" />
    <g
       id="svg_12" />
    <g
       id="svg_24" />
    <g
       id="svg_30" />
    <g
       id="svg_34" />
    <g
       id="svg_39" />
    <g
       id="svg_45" />
    <g
       id="svg_51" />
    <g
       id="svg_57" />
    <g
       id="svg_63" />
    <g
       id="svg_68" />
    <g
       id="svg_73" />
    <g
       id="svg_78" />
    <g
       id="svg_90" />
    <g
       id="svg_102" />
    <g
       id="svg_114" />
    <g
       aria-label="Options"
       transform="matrix(1.29741 0 0 1.39461 -27.9056 -0.598073)"
       style="font-weight:bold;font-size:35px;font-family:Sans-serif;text-anchor:middle;fill:#000000;stroke:#000000;stroke-width:0"
       id="svg_115">
      <path
         d="m 98.384766,12.970074 q -3.007813,0 -4.665528,2.221679 -1.657715,2.22168 -1.657715,6.254883 0,4.016113 1.657715,6.237793 1.657715,2.22168 4.665528,2.22168 3.024904,0 4.682614,-2.22168 1.65772,-2.22168 1.65772,-6.237793 0,-4.033203 -1.65772,-6.254883 -1.65771,-2.221679 -4.682614,-2.221679 z m 0,-4.7680667 q 6.152344,0 9.638674,3.5205077 3.48633,3.520508 3.48633,9.724121 0,6.186524 -3.48633,9.707031 -3.48633,3.520508 -9.638674,3.520508 -6.135254,0 -9.638672,-3.520508 -3.486328,-3.520507 -3.486328,-9.707031 0,-6.203613 3.486328,-9.724121 3.503418,-3.5205077 9.638672,-3.5205077 z"
         style="font-weight:bold;font-size:35px;font-family:Sans-serif;text-anchor:middle;fill:#000000;stroke:#000000;stroke-width:0"
         id="path6877" />
      <path
         d="m 122.31055,31.410015 v 10.048828 h -6.11817 V 15.037945 h 6.11817 v 2.802734 q 1.26465,-1.674805 2.80273,-2.460937 1.53809,-0.803223 3.5376,-0.803223 3.5376,0 5.81055,2.819824 2.27294,2.802735 2.27294,7.229004 0,4.42627 -2.27294,7.246094 -2.27295,2.802734 -5.81055,2.802734 -1.99951,0 -3.5376,-0.786133 -1.53808,-0.803222 -2.80273,-2.478027 z m 4.06738,-12.390137 q -1.96533,0 -3.0249,1.452637 -1.04248,1.435547 -1.04248,4.152832 0,2.717285 1.04248,4.169922 1.05957,1.435547 3.0249,1.435547 1.96533,0 2.99072,-1.435547 1.04248,-1.435547 1.04248,-4.169922 0,-2.734375 -1.04248,-4.169922 -1.02539,-1.435547 -2.99072,-1.435547 z"
         style="font-weight:bold;font-size:35px;font-family:Sans-serif;text-anchor:middle;fill:#000000;stroke:#000000;stroke-width:0"
         id="path6879" />
      <path
         d="m 147.9624,9.6033745 v 5.4345705 h 6.30615 v 4.375 h -6.30615 v 8.117676 q 0,1.333007 0.52979,1.811523 0.52978,0.461426 2.10205,0.461426 h 3.14453 v 4.375 h -5.24658 q -3.62305,0 -5.14405,-1.503906 -1.5039,-1.520997 -1.5039,-5.144043 v -8.117676 h -3.04199 v -4.375 h 3.04199 V 9.6033745 Z"
         style="font-weight:bold;font-size:35px;font-family:Sans-serif;text-anchor:middle;fill:#000000;stroke:#000000;stroke-width:0"
         id="path6881" />
      <path
         d="m 158.02832,15.037945 h 6.11816 V 34.17857 h -6.11816 z m 0,-7.4511721 h 6.11816 v 4.9902341 h -6.11816 z"
         style="font-weight:bold;font-size:35px;font-family:Sans-serif;text-anchor:middle;fill:#000000;stroke:#000000;stroke-width:0"
         id="path6883" />
      <path
         d="m 179.16846,18.951519 q -2.03369,0 -3.11035,1.469727 -1.05957,1.452636 -1.05957,4.204101 0,2.751465 1.05957,4.221192 1.07666,1.452636 3.11035,1.452636 1.99951,0 3.05908,-1.452636 1.05957,-1.469727 1.05957,-4.221192 0,-2.751465 -1.05957,-4.204101 -1.05957,-1.469727 -3.05908,-1.469727 z m 0,-4.375 q 4.93896,0 7.70752,2.666016 2.78564,2.666015 2.78564,7.382812 0,4.716797 -2.78564,7.382813 -2.76856,2.666015 -7.70752,2.666015 -4.95606,0 -7.75879,-2.666015 -2.78565,-2.666016 -2.78565,-7.382813 0,-4.716797 2.78565,-7.382812 2.80273,-2.666016 7.75879,-2.666016 z"
         style="font-weight:bold;font-size:35px;font-family:Sans-serif;text-anchor:middle;fill:#000000;stroke:#000000;stroke-width:0"
         id="path6885" />
      <path
         d="M 213.36523,22.523296 V 34.17857 h -6.15234 v -1.896973 -7.023926 q 0,-2.478027 -0.11963,-3.417968 -0.10254,-0.939942 -0.37597,-1.384278 -0.35889,-0.598144 -0.97413,-0.922851 -0.61523,-0.341797 -1.40136,-0.341797 -1.91407,0 -3.00782,1.486816 -1.09375,1.469727 -1.09375,4.084473 v 9.416504 h -6.11816 V 15.037945 h 6.11816 v 2.802734 q 1.38428,-1.674805 2.93946,-2.460937 1.55517,-0.803223 3.43506,-0.803223 3.31543,0 5.02441,2.033691 1.72607,2.033692 1.72607,5.913086 z"
         style="font-weight:bold;font-size:35px;font-family:Sans-serif;text-anchor:middle;fill:#000000;stroke:#000000;stroke-width:0"
         id="path6887" />
      <path
         d="m 234.02686,15.636089 v 4.648438 q -1.96534,-0.820313 -3.79395,-1.230469 -1.82861,-0.410156 -3.45215,-0.410156 -1.74316,0 -2.59765,0.444336 -0.83741,0.427246 -0.83741,1.333008 0,0.734863 0.63233,1.127929 0.64941,0.393067 2.30713,0.581055 l 1.07666,0.153809 q 4.6997,0.598144 6.32324,1.965332 1.62353,1.367187 1.62353,4.28955 0,3.059082 -2.25586,4.597168 -2.25586,1.538086 -6.73339,1.538086 -1.89698,0 -3.93067,-0.307617 -2.0166,-0.290527 -4.15283,-0.888672 v -4.648437 q 1.82861,0.888672 3.74268,1.333008 1.93115,0.444335 3.91357,0.444335 1.79443,0 2.7002,-0.495605 0.90576,-0.495605 0.90576,-1.469727 0,-0.820312 -0.63233,-1.213378 -0.61523,-0.410157 -2.47802,-0.632325 l -1.07666,-0.136718 q -4.08448,-0.512696 -5.7251,-1.896973 -1.64063,-1.384277 -1.64063,-4.204102 0,-3.041992 2.08496,-4.511718 2.08496,-1.469727 6.3916,-1.469727 1.6919,0 3.55469,0.256348 1.8628,0.256347 4.0503,0.803222 z"
         style="font-weight:bold;font-size:35px;font-family:Sans-serif;text-anchor:middle;fill:#000000;stroke:#000000;stroke-width:0"
         id="path6889" />
    </g>
    <g
       aria-label="Menu"
       transform="matrix(1.37831 0 0 1.39721 -183.073 -0.831652)"
       style="font-weight:bold;font-size:35px;font-family:Sans-serif;text-anchor:middle;fill:#000000;stroke:#000000;stroke-width:0"
       id="svg_116">
      <path
         d="m 423.88403,8.4477196 h 8.37403 l 5.81054,13.6547854 5.84473,-13.6547854 h 8.35693 V 33.962856 h -6.2207 V 15.300747 l -5.87891,13.757324 h -4.16992 l -5.8789,-13.757324 v 18.662109 h -6.2378 z"
         style="font-weight:bold;font-size:35px;font-family:Sans-serif;text-anchor:middle;fill:#000000;stroke:#000000;stroke-width:0"
         id="path6892" />
      <path
         d="m 477.58032,24.341274 v 1.743164 h -14.3042 q 0.22217,2.153321 1.55518,3.229981 1.33301,1.07666 3.72558,1.07666 1.93116,0 3.94776,-0.563965 2.03369,-0.581055 4.16992,-1.743164 v 4.716797 q -2.17041,0.820312 -4.34082,1.230469 -2.17041,0.427246 -4.34082,0.427246 -5.19531,0 -8.0835,-2.631836 -2.87109,-2.648926 -2.87109,-7.416992 0,-4.682618 2.81982,-7.365723 2.83692,-2.683105 7.79297,-2.683105 4.51172,0 7.21192,2.717285 2.71728,2.717285 2.71728,7.263183 z m -6.28906,-2.033691 q 0,-1.743164 -1.02539,-2.802735 -1.0083,-1.07666 -2.64893,-1.07666 -1.77734,0 -2.88818,1.008301 -1.11084,0.991211 -1.38428,2.871094 z"
         style="font-weight:bold;font-size:35px;font-family:Sans-serif;text-anchor:middle;fill:#000000;stroke:#000000;stroke-width:0"
         id="path6894" />
      <path
         d="m 501.43774,22.307583 v 11.655273 h -6.15234 v -1.896972 -7.023926 q 0,-2.478027 -0.11963,-3.417969 -0.10254,-0.939941 -0.37598,-1.384277 -0.35888,-0.598145 -0.97412,-0.922852 -0.61523,-0.341797 -1.40136,-0.341797 -1.91407,0 -3.00782,1.486817 -1.09375,1.469726 -1.09375,4.084472 v 9.416504 h -6.11816 V 14.822231 h 6.11816 v 2.802735 q 1.38428,-1.674805 2.93946,-2.460938 1.55517,-0.803222 3.43506,-0.803222 3.31543,0 5.02441,2.033691 1.72607,2.033691 1.72607,5.913086 z"
         style="font-weight:bold;font-size:35px;font-family:Sans-serif;text-anchor:middle;fill:#000000;stroke:#000000;stroke-width:0"
         id="path6896" />
      <path
         d="M 506.94067,26.511684 V 14.822231 h 6.15235 v 1.914063 q 0,1.555176 -0.0171,3.913574 -0.0171,2.341309 -0.0171,3.127441 0,2.307129 0.11963,3.33252 0.11963,1.008301 0.41015,1.469727 0.37598,0.598144 0.97412,0.922851 0.61524,0.324707 1.40137,0.324707 1.91406,0 3.00781,-1.469726 1.09375,-1.469727 1.09375,-4.084473 v -9.450684 h 6.11817 v 19.140625 h -6.11817 v -2.768554 q -1.38427,1.674804 -2.93945,2.478027 -1.53809,0.786133 -3.40088,0.786133 -3.31543,0 -5.05859,-2.033692 -1.72608,-2.033691 -1.72608,-5.913086 z"
         style="font-weight:bold;font-size:35px;font-family:Sans-serif;text-anchor:middle;fill:#000000;stroke:#000000;stroke-width:0"
         id="path6898" />
    </g>
    <g
       aria-label="Play"
       transform="matrix(1.3835 0 0 1.38479 -478.427 -0.998061)"
       style="font-weight:bold;font-size:35px;font-family:Sans-serif;text-anchor:middle;fill:#000000;stroke:#000000;stroke-width:0"
       id="svg_118">
      <path
         d="m 1168.5399,8.5802422 h 10.9204 q 4.8706,0 7.4683,2.1704098 2.6147,2.153321 2.6147,6.152344 0,4.016113 -2.6147,6.186524 -2.5977,2.15332 -7.4683,2.15332 h -4.3408 v 8.852539 h -6.5796 z m 6.5796,4.7680668 v 7.126464 h 3.6401 q 1.9141,0 2.9566,-0.922851 1.0425,-0.939942 1.0425,-2.648926 0,-1.708984 -1.0425,-2.631836 -1.0425,-0.922851 -2.9566,-0.922851 z"
         style="font-weight:bold;font-size:35px;font-family:Sans-serif;text-anchor:middle;fill:#000000;stroke:#000000;stroke-width:0"
         id="path6922" />
      <path
         d="m 1193.9012,7.503582 h 6.1182 v 26.591797 h -6.1182 z"
         style="font-weight:bold;font-size:35px;font-family:Sans-serif;text-anchor:middle;fill:#000000;stroke:#000000;stroke-width:0"
         id="path6924" />
      <path
         d="m 1214.5116,25.482098 q -1.9141,0 -2.8882,0.649414 -0.957,0.649414 -0.957,1.914062 0,1.16211 0.769,1.828613 0.7862,0.649415 2.1704,0.649415 1.7261,0 2.9053,-1.230469 1.1792,-1.247559 1.1792,-3.110352 v -0.700683 z m 9.3481,-2.307129 v 10.92041 h -6.1694 v -2.836914 q -1.2305,1.743164 -2.7685,2.546387 -1.5381,0.786132 -3.7427,0.786132 -2.9737,0 -4.8364,-1.726074 -1.8458,-1.743164 -1.8458,-4.511719 0,-3.366699 2.3072,-4.938964 2.3242,-1.572266 7.2803,-1.572266 h 3.6059 v -0.478516 q 0,-1.452636 -1.145,-2.11914 -1.145,-0.683594 -3.5718,-0.683594 -1.9653,0 -3.6572,0.393066 -1.6919,0.393067 -3.1445,1.1792 v -4.665528 q 1.9653,-0.478515 3.9477,-0.717773 1.9824,-0.256348 3.9649,-0.256348 5.1782,0 7.4682,2.050781 2.3071,2.033692 2.3071,6.63086 z"
         style="font-weight:bold;font-size:35px;font-family:Sans-serif;text-anchor:middle;fill:#000000;stroke:#000000;stroke-width:0"
         id="path6926" />
      <path
         d="m 1225.9789,14.954754 h 6.1181 l 5.1441,12.988281 4.375,-12.988281 h 6.1182 l -8.0494,20.952148 q -1.2133,3.195801 -2.8369,4.46045 -1.6064,1.281738 -4.2553,1.281738 h -3.5376 v -4.016113 h 1.914 q 1.5552,0 2.2559,-0.495606 0.7177,-0.495605 1.1108,-1.777344 l 0.1709,-0.529785 z"
         style="font-weight:bold;font-size:35px;font-family:Sans-serif;text-anchor:middle;fill:#000000;stroke:#000000;stroke-width:0"
         id="path6928" />
    </g>
    <g
       aria-label="Next System"
       transform="matrix(1.22353 0 0 1.40896 -230.462 -12.1331)"
       style="font-weight:bold;font-size:35px;font-family:Sans-serif;text-anchor:middle;fill:#000000;stroke:#000000;stroke-width:0"
       id="svg_123">
      <path
         d="m 716.95001,16.031937 h 7.34864 l 9.27978,17.5 v -17.5 h 6.23779 v 25.515136 h -7.34863 l -9.27978,-17.5 v 17.5 h -6.2378 z"
         style="font-weight:bold;font-size:35px;font-family:Sans-serif;text-anchor:middle;fill:#000000;stroke:#000000;stroke-width:0"
         id="path6901" />
      <path
         d="m 765.10919,31.925491 v 1.743164 h -14.3042 q 0.22217,2.153321 1.55518,3.229981 1.33301,1.07666 3.72558,1.07666 1.93116,0 3.94776,-0.563965 2.03369,-0.581055 4.16992,-1.743164 v 4.716797 q -2.17041,0.820312 -4.34082,1.230469 -2.17041,0.427246 -4.34082,0.427246 -5.19531,0 -8.0835,-2.631836 -2.87109,-2.648926 -2.87109,-7.416992 0,-4.682617 2.81982,-7.365723 2.83692,-2.683105 7.79297,-2.683105 4.51172,0 7.21192,2.717285 2.71728,2.717285 2.71728,7.263183 z M 758.82013,29.8918 q 0,-1.743164 -1.02539,-2.802734 -1.0083,-1.076661 -2.64893,-1.076661 -1.77734,0 -2.88818,1.008301 -1.11084,0.991211 -1.38428,2.871094 z"
         style="font-weight:bold;font-size:35px;font-family:Sans-serif;text-anchor:middle;fill:#000000;stroke:#000000;stroke-width:0"
         id="path6903" />
      <path
         d="m 774.55988,31.754593 -6.9043,-9.348145 h 6.47705 l 3.91357,5.673828 3.96485,-5.673828 h 6.47705 l -6.9043,9.313965 7.2461,9.82666 h -6.47706 l -4.30664,-6.049804 -4.25537,6.049804 h -6.47705 z"
         style="font-weight:bold;font-size:35px;font-family:Sans-serif;text-anchor:middle;fill:#000000;stroke:#000000;stroke-width:0"
         id="path6905" />
      <path
         d="m 798.96417,16.971878 v 5.43457 h 6.30615 v 4.375 h -6.30615 v 8.117676 q 0,1.333008 0.52979,1.811524 0.52978,0.461425 2.10205,0.461425 h 3.14453 v 4.375 h -5.24658 q -3.62305,0 -5.14405,-1.503906 -1.5039,-1.520996 -1.5039,-5.144043 v -8.117676 h -3.04199 v -4.375 h 3.04199 v -5.43457 z"
         style="font-weight:bold;font-size:35px;font-family:Sans-serif;text-anchor:middle;fill:#000000;stroke:#000000;stroke-width:0"
         id="path6907" />
      <path
         d="m 839.22784,16.835159 v 5.400391 q -2.10205,-0.939941 -4.10156,-1.418457 -1.99951,-0.478516 -3.77685,-0.478516 -2.3584,0 -3.48633,0.649414 -1.12793,0.649414 -1.12793,2.016602 0,1.025391 0.75195,1.606445 0.76904,0.563965 2.76856,0.974121 l 2.80273,0.563965 q 4.25537,0.854492 6.04981,2.597656 1.79443,1.743164 1.79443,4.956055 0,4.221191 -2.51221,6.289063 -2.49512,2.050781 -7.63916,2.050781 -2.42676,0 -4.8706,-0.461426 -2.44385,-0.461426 -4.8877,-1.367187 v -5.5542 q 2.44385,1.298828 4.7168,1.965332 2.29004,0.649414 4.40918,0.649414 2.15332,0 3.29834,-0.717773 1.14502,-0.717773 1.14502,-2.050781 0,-1.196289 -0.78614,-1.845703 -0.76904,-0.649414 -3.09326,-1.16211 l -2.54638,-0.563965 q -3.82813,-0.820312 -5.60547,-2.614746 -1.76026,-1.794433 -1.76026,-4.836425 0,-3.811036 2.46094,-5.861817 2.46094,-2.050781 7.0752,-2.050781 2.10205,0 4.32373,0.324707 2.22168,0.307617 4.59716,0.939941 z"
         style="font-weight:bold;font-size:35px;font-family:Sans-serif;text-anchor:middle;fill:#000000;stroke:#000000;stroke-width:0"
         id="path6909" />
      <path
         d="m 843.91046,22.406448 h 6.11817 l 5.14404,12.988282 4.375,-12.988282 h 6.11816 l -8.04931,20.952149 q -1.21338,3.195801 -2.83692,4.460449 -1.60644,1.281738 -4.25537,1.281738 h -3.5376 v -4.016113 h 1.91407 q 1.55517,0 2.25586,-0.495605 0.71777,-0.495606 1.11084,-1.777344 l 0.17089,-0.529785 z"
         style="font-weight:bold;font-size:35px;font-family:Sans-serif;text-anchor:middle;fill:#000000;stroke:#000000;stroke-width:0"
         id="path6911" />
      <path
         d="m 884.20831,23.004593 v 4.648437 q -1.96533,-0.820312 -3.79394,-1.230468 -1.82862,-0.410157 -3.45215,-0.410157 -1.74316,0 -2.59766,0.444336 -0.8374,0.427246 -0.8374,1.333008 0,0.734863 0.63232,1.12793 0.64942,0.393066 2.30713,0.581055 l 1.07666,0.153808 q 4.69971,0.598145 6.32325,1.965332 1.62353,1.367188 1.62353,4.289551 0,3.059082 -2.25586,4.597168 -2.25586,1.538086 -6.7334,1.538086 -1.89697,0 -3.93066,-0.307617 -2.0166,-0.290528 -4.15283,-0.888672 v -4.648438 q 1.82861,0.888672 3.74267,1.333008 1.93116,0.444336 3.91358,0.444336 1.79443,0 2.70019,-0.495605 0.90576,-0.495606 0.90576,-1.469727 0,-0.820313 -0.63232,-1.213379 -0.61523,-0.410156 -2.47803,-0.632324 l -1.07666,-0.136719 q -4.08447,-0.512695 -5.72509,-1.896973 -1.64063,-1.384277 -1.64063,-4.204101 0,-3.041992 2.08496,-4.511719 2.08496,-1.469726 6.3916,-1.469726 1.6919,0 3.55469,0.256347 1.86279,0.256348 4.05029,0.803223 z"
         style="font-weight:bold;font-size:35px;font-family:Sans-serif;text-anchor:middle;fill:#000000;stroke:#000000;stroke-width:0"
         id="path6913" />
      <path
         d="m 896.78644,16.971878 v 5.43457 h 6.30615 v 4.375 h -6.30615 v 8.117676 q 0,1.333008 0.52978,1.811524 0.52979,0.461425 2.10205,0.461425 h 3.14454 v 4.375 h -5.24659 q -3.62304,0 -5.14404,-1.503906 -1.50391,-1.520996 -1.50391,-5.144043 v -8.117676 h -3.04199 v -4.375 h 3.04199 v -5.43457 z"
         style="font-weight:bold;font-size:35px;font-family:Sans-serif;text-anchor:middle;fill:#000000;stroke:#000000;stroke-width:0"
         id="path6915" />
      <path
         d="m 925.9588,31.925491 v 1.743164 h -14.3042 q 0.22217,2.153321 1.55518,3.229981 1.33301,1.07666 3.72558,1.07666 1.93116,0 3.94776,-0.563965 2.03369,-0.581055 4.16992,-1.743164 v 4.716797 q -2.17041,0.820312 -4.34082,1.230469 -2.17041,0.427246 -4.34082,0.427246 -5.19531,0 -8.0835,-2.631836 -2.87109,-2.648926 -2.87109,-7.416992 0,-4.682617 2.81982,-7.365723 2.83692,-2.683105 7.79297,-2.683105 4.51172,0 7.21192,2.717285 2.71728,2.717285 2.71728,7.263183 z M 919.66974,29.8918 q 0,-1.743164 -1.02539,-2.802734 -1.0083,-1.076661 -2.64893,-1.076661 -1.77734,0 -2.88818,1.008301 -1.11084,0.991211 -1.38428,2.871094 z"
         style="font-weight:bold;font-size:35px;font-family:Sans-serif;text-anchor:middle;fill:#000000;stroke:#000000;stroke-width:0"
         id="path6917" />
      <path
         d="m 948.31232,25.585159 q 1.16211,-1.777343 2.75146,-2.700195 1.60645,-0.939941 3.52051,-0.939941 3.29834,0 5.02441,2.033691 1.72608,2.033691 1.72608,5.913086 v 11.655273 h -6.15235 v -9.980468 q 0.0171,-0.222168 0.0171,-0.461426 0.0171,-0.239258 0.0171,-0.683594 0,-2.033691 -0.59814,-2.939453 -0.59815,-0.922852 -1.93115,-0.922852 -1.74317,0 -2.7002,1.435547 -0.93994,1.435547 -0.97412,4.152832 v 9.399414 h -6.15234 v -9.980468 q 0,-3.178711 -0.54688,-4.084473 -0.54687,-0.922852 -1.94824,-0.922852 -1.76025,0 -2.71729,1.452637 -0.95703,1.435547 -0.95703,4.118652 v 9.416504 h -6.15234 V 22.406448 h 6.15234 v 2.802735 q 1.12793,-1.623535 2.58057,-2.443848 1.46973,-0.820312 3.22998,-0.820312 1.98242,0 3.50342,0.957031 1.52099,0.957031 2.30713,2.683105 z"
         style="font-weight:bold;font-size:35px;font-family:Sans-serif;text-anchor:middle;fill:#000000;stroke:#000000;stroke-width:0"
         id="path6919" />
    </g>
    <g
       id="svg_249" />
    <g
       aria-label="Page"
       transform="matrix(1.31167 0 0 1.17257 -568.236 -1.2943)"
       style="font-weight:bold;font-size:35px;font-family:Sans-serif;text-anchor:middle;fill:#000000;stroke:#000000;stroke-width:0"
       id="svg_256">
      <path
         d="m 1736.1436,14.556293 h 10.9204 q 4.8706,0 7.4682,2.170411 2.6148,2.15332 2.6148,6.152343 0,4.016114 -2.6148,6.186524 -2.5976,2.15332 -7.4682,2.15332 h -4.3409 v 8.852539 h -6.5795 z m 6.5795,4.768067 v 7.126465 h 3.6402 q 1.914,0 2.9565,-0.922852 1.0425,-0.939941 1.0425,-2.648926 0,-1.708984 -1.0425,-2.631836 -1.0425,-0.922851 -2.9565,-0.922851 z"
         style="font-weight:bold;font-size:35px;font-family:Sans-serif;text-anchor:middle;fill:#000000;stroke:#000000;stroke-width:0"
         id="path6940" />
      <path
         d="m 1769.127,31.458149 q -1.9141,0 -2.8882,0.649414 -0.9571,0.649414 -0.9571,1.914063 0,1.162109 0.7691,1.828613 0.7861,0.649414 2.1704,0.649414 1.7261,0 2.9053,-1.230469 1.1792,-1.247558 1.1792,-3.110351 v -0.700684 z m 9.3481,-2.307129 v 10.92041 h -6.1694 v -2.836914 q -1.2305,1.743164 -2.7686,2.546387 -1.5381,0.786133 -3.7427,0.786133 -2.9736,0 -4.8364,-1.726075 -1.8457,-1.743164 -1.8457,-4.511718 0,-3.3667 2.3071,-4.938965 2.3243,-1.572266 7.2803,-1.572266 h 3.606 v -0.478515 q 0,-1.452637 -1.1451,-2.119141 -1.145,-0.683594 -3.5717,-0.683594 -1.9654,0 -3.6573,0.393067 -1.6919,0.393066 -3.1445,1.179199 v -4.665527 q 1.9653,-0.478516 3.9478,-0.717774 1.9824,-0.256348 3.9648,-0.256348 5.1782,0 7.4683,2.050782 2.3071,2.033691 2.3071,6.630859 z"
         style="font-weight:bold;font-size:35px;font-family:Sans-serif;text-anchor:middle;fill:#000000;stroke:#000000;stroke-width:0"
         id="path6942" />
      <path
         d="m 1797.2227,36.82436 q -1.2647,1.674805 -2.7857,2.460937 -1.521,0.786133 -3.5205,0.786133 -3.5034,0 -5.7935,-2.751465 -2.29,-2.768554 -2.29,-7.041015 0,-4.289551 2.29,-7.023926 2.2901,-2.751465 5.7935,-2.751465 1.9995,0 3.5205,0.786133 1.521,0.786133 2.7857,2.478027 v -2.836914 h 6.1523 v 17.209473 q 0,4.614258 -2.9224,7.041015 -2.9052,2.443848 -8.4423,2.443848 -1.7945,0 -3.4693,-0.273437 -1.6748,-0.273438 -3.3667,-0.837403 v -4.768066 q 1.6065,0.922851 3.1445,1.367187 1.5381,0.461426 3.0933,0.461426 3.0078,0 4.4092,-1.315918 1.4014,-1.315918 1.4014,-4.118652 z m -4.0332,-11.911621 q -1.897,0 -2.9566,1.401367 -1.0596,1.401367 -1.0596,3.964844 0,2.631836 1.0254,3.999023 1.0254,1.350098 2.9908,1.350098 1.914,0 2.9736,-1.401367 1.0596,-1.401368 1.0596,-3.947754 0,-2.563477 -1.0596,-3.964844 -1.0596,-1.401367 -2.9736,-1.401367 z"
         style="font-weight:bold;font-size:35px;font-family:Sans-serif;text-anchor:middle;fill:#000000;stroke:#000000;stroke-width:0"
         id="path6944" />
      <path
         d="m 1828.3945,30.449848 v 1.743164 h -14.3042 q 0.2222,2.153321 1.5552,3.229981 1.333,1.07666 3.7256,1.07666 1.9311,0 3.9477,-0.563965 2.0337,-0.581055 4.17,-1.743164 v 4.716797 q -2.1704,0.820312 -4.3409,1.230469 -2.1704,0.427246 -4.3408,0.427246 -5.1953,0 -8.0835,-2.631836 -2.8711,-2.648926 -2.8711,-7.416992 0,-4.682618 2.8199,-7.365723 2.8369,-2.683106 7.7929,-2.683106 4.5118,0 7.2119,2.717286 2.7173,2.717285 2.7173,7.263183 z m -6.289,-2.033691 q 0,-1.743164 -1.0254,-2.802735 -1.0083,-1.07666 -2.6489,-1.07666 -1.7774,0 -2.8882,1.008301 -1.1109,0.991211 -1.3843,2.871094 z"
         style="font-weight:bold;font-size:35px;font-family:Sans-serif;text-anchor:middle;fill:#000000;stroke:#000000;stroke-width:0"
         id="path6946" />
    </g>
    <g
       aria-label="Back"
       transform="matrix(1.37161 0 0 1.31163 -517.884 1.93619)"
       style="font-weight:bold;font-size:35px;font-family:Sans-serif;text-anchor:middle;fill:#000000;stroke:#000000;stroke-width:0"
       id="svg_257">
      <path
         d="m 1392.1096,17.882278 q 1.5552,0 2.3584,-0.683593 0.8032,-0.683594 0.8032,-2.016602 0,-1.315918 -0.8032,-1.999512 -0.8032,-0.700683 -2.3584,-0.700683 h -3.6401 v 5.40039 z m 0.2222,11.159668 q 1.9824,0 2.9736,-0.837402 1.0083,-0.837402 1.0083,-2.529297 0,-1.657715 -0.9912,-2.478027 -0.9912,-0.837402 -2.9907,-0.837402 h -3.8623 v 6.682128 z M 1398.45,19.8647 q 2.1191,0.615235 3.2812,2.27295 1.1621,1.657714 1.1621,4.067382 0,3.691407 -2.4951,5.50293 -2.4951,1.811523 -7.5879,1.811523 h -10.9204 V 8.0043488 h 9.8779 q 5.315,0 7.6905,1.6064453 2.3925,1.6064449 2.3925,5.1440429 0,1.862793 -0.8716,3.178711 -0.8715,1.298828 -2.5292,1.931152 z"
         style="font-weight:bold;font-size:35px;font-family:Sans-serif;text-anchor:middle;fill:#000000;stroke:#000000;stroke-width:0"
         id="path6931" />
      <path
         d="m 1416.8557,24.906204 q -1.914,0 -2.8882,0.649414 -0.957,0.649414 -0.957,1.914063 0,1.162109 0.769,1.828613 0.7862,0.649414 2.1705,0.649414 1.726,0 2.9052,-1.230469 1.1792,-1.247558 1.1792,-3.110351 v -0.700684 z m 9.3482,-2.307129 v 10.92041 h -6.1695 v -2.836914 q -1.2304,1.743164 -2.7685,2.546387 -1.5381,0.786133 -3.7427,0.786133 -2.9736,0 -4.8364,-1.726074 -1.8457,-1.743164 -1.8457,-4.511719 0,-3.366699 2.3071,-4.938965 2.3242,-1.572265 7.2803,-1.572265 h 3.6059 v -0.478516 q 0,-1.452637 -1.145,-2.119141 -1.145,-0.683593 -3.5718,-0.683593 -1.9653,0 -3.6572,0.393066 -1.6919,0.393066 -3.1445,1.179199 v -4.665527 q 1.9653,-0.478516 3.9477,-0.717774 1.9824,-0.256347 3.9649,-0.256347 5.1782,0 7.4682,2.050781 2.3072,2.033691 2.3072,6.630859 z"
         style="font-weight:bold;font-size:35px;font-family:Sans-serif;text-anchor:middle;fill:#000000;stroke:#000000;stroke-width:0"
         id="path6933" />
      <path
         d="m 1447.3953,14.977005 v 4.990234 q -1.2476,-0.854492 -2.5122,-1.264648 -1.2476,-0.410156 -2.5977,-0.410156 -2.5635,0 -3.999,1.503906 -1.4185,1.486816 -1.4185,4.169922 0,2.683105 1.4185,4.187012 1.4355,1.486816 3.999,1.486816 1.4355,0 2.7173,-0.427246 1.2988,-0.427246 2.3926,-1.264649 v 5.007325 q -1.4356,0.529785 -2.9224,0.786132 -1.4697,0.273438 -2.9565,0.273438 -5.1783,0 -8.1006,-2.648926 -2.9224,-2.666015 -2.9224,-7.399902 0,-4.733887 2.9224,-7.382813 2.9223,-2.666015 8.1006,-2.666015 1.5039,0 2.9565,0.273437 1.4697,0.256348 2.9224,0.786133 z"
         style="font-weight:bold;font-size:35px;font-family:Sans-serif;text-anchor:middle;fill:#000000;stroke:#000000;stroke-width:0"
         id="path6935" />
      <path
         d="m 1452.7102,6.9276886 h 6.1182 V 21.402786 l 7.041,-7.023926 h 7.1094 l -9.3482,8.78418 10.083,10.356445 h -7.417 l -7.4682,-7.980957 v 7.980957 h -6.1182 z"
         style="font-weight:bold;font-size:35px;font-family:Sans-serif;text-anchor:middle;fill:#000000;stroke:#000000;stroke-width:0"
         id="path6937" />
    </g>
    <g
       id="g5888"
       transform="matrix(3.5779314,0,0,3.6727096,1.7891565,0.88459494)">
      <g
         id="g5842">
	<linearGradient
   y2="0.26069999"
   x2="10.0034"
   y1="10.2437"
   x1="10.0034"
   gradientUnits="userSpaceOnUse"
   id="SVGID_1_">
		<stop
   id="stop5814"
   style="stop-color:#141414"
   offset="0" />

		<stop
   id="stop5816"
   style="stop-color:#1C1C1D"
   offset="0.2088" />

		<stop
   id="stop5818"
   style="stop-color:#333335"
   offset="0.5493" />

		<stop
   id="stop5820"
   style="stop-color:#59595D"
   offset="0.9769" />

		<stop
   id="stop5822"
   style="stop-color:#5B5B5F"
   offset="1" />

	</linearGradient>

	<path
   id="path5825"
   d="m 19.523,8.66 c 0,0.645 -0.939,1.583 -1.583,1.583 H 2.067 C 1.422,10.243 0.484,9.304 0.484,8.66 V 1.845 C 0.484,1.2 1.423,0.261 2.067,0.261 h 15.872 c 0.645,0 1.583,0.939 1.583,1.584 V 8.66 Z"
   inkscape:connector-curvature="0"
   style="fill:url(#SVGID_1_)" />

	<linearGradient
   y2="0"
   x2="10.0034"
   y1="10.5044"
   x1="10.0034"
   gradientUnits="userSpaceOnUse"
   id="SVGID_2_">
		<stop
   id="stop5827"
   style="stop-color:#141414"
   offset="0" />

		<stop
   id="stop5829"
   style="stop-color:#181818"
   offset="0.2261" />

		<stop
   id="stop5831"
   style="stop-color:#242425"
   offset="0.4603" />

		<stop
   id="stop5833"
   style="stop-color:#373739"
   offset="0.6982" />

		<stop
   id="stop5835"
   style="stop-color:#535356"
   offset="0.9374" />

		<stop
   id="stop5837"
   style="stop-color:#5B5B5F"
   offset="1" />

	</linearGradient>

	<path
   id="path5840"
   d="M 17.939,10.504 H 2.067 C 1.274,10.504 0.223,9.453 0.223,8.66 V 1.845 C 0.223,1.051 1.274,0 2.067,0 h 15.872 c 0.793,0 1.844,1.051 1.844,1.845 V 8.66 c 10e-4,0.793 -1.051,1.844 -1.844,1.844 z M 2.067,0.521 c -0.495,0 -1.323,0.828 -1.323,1.323 V 8.66 c 0,0.495 0.829,1.323 1.323,1.323 h 15.872 c 0.495,0 1.323,-0.829 1.323,-1.323 V 1.845 c 0,-0.495 -0.829,-1.323 -1.323,-1.323 H 2.067 Z"
   inkscape:connector-curvature="0"
   style="fill:url(#SVGID_2_)" />

</g>
      <g
         id="g5856">
	<path
   id="path5844"
   d="M 2.048,13.295 C 2.03,13.118 1.966,12.986 1.855,12.899 c -0.111,-0.087 -0.278,-0.13 -0.5,-0.13 -0.41,0 -0.615,0.141 -0.615,0.422 0,0.101 0.042,0.185 0.127,0.252 0.085,0.068 0.221,0.125 0.409,0.169 0.222,0.052 0.415,0.101 0.578,0.146 0.164,0.045 0.313,0.097 0.449,0.156 0.076,0.031 0.148,0.07 0.216,0.117 0.068,0.047 0.125,0.105 0.172,0.175 0.047,0.069 0.084,0.153 0.112,0.25 0.028,0.098 0.042,0.215 0.042,0.354 0,0.167 -0.034,0.314 -0.104,0.443 -0.069,0.129 -0.164,0.237 -0.281,0.326 -0.118,0.089 -0.257,0.156 -0.417,0.203 -0.16,0.047 -0.329,0.071 -0.505,0.071 -0.504,0 -0.883,-0.098 -1.136,-0.292 C 0.147,15.367 0.014,15.079 0,14.697 h 0.698 c 0.003,0.177 0.076,0.317 0.216,0.419 0.141,0.103 0.317,0.154 0.529,0.154 0.229,0 0.403,-0.042 0.521,-0.125 0.118,-0.083 0.177,-0.196 0.177,-0.339 0,-0.055 -0.007,-0.107 -0.021,-0.153 C 2.106,14.606 2.079,14.563 2.039,14.525 2,14.487 1.945,14.453 1.876,14.423 1.806,14.393 1.716,14.366 1.605,14.342 1.34,14.287 1.112,14.23 0.919,14.173 0.726,14.116 0.567,14.045 0.442,13.96 0.317,13.875 0.225,13.772 0.166,13.65 0.107,13.528 0.077,13.374 0.077,13.186 c 0,-0.143 0.026,-0.276 0.078,-0.401 0.052,-0.125 0.132,-0.233 0.24,-0.326 0.108,-0.093 0.241,-0.165 0.399,-0.219 0.158,-0.054 0.344,-0.081 0.56,-0.081 0.208,0 0.396,0.026 0.563,0.081 0.167,0.054 0.31,0.13 0.43,0.229 0.12,0.099 0.213,0.219 0.279,0.36 0.066,0.141 0.103,0.296 0.109,0.466 H 2.048 Z"
   inkscape:connector-curvature="0" />

	<path
   id="path5846"
   d="m 3.622,15.734 v -3.46 h 2.543 v 0.604 h -1.84 v 0.74 h 1.693 v 0.61 H 4.326 v 0.891 h 1.923 v 0.615 z"
   inkscape:connector-curvature="0" />

	<path
   id="path5848"
   d="m 6.994,15.734 v -3.46 h 0.724 v 2.83 h 1.715 v 0.63 z"
   inkscape:connector-curvature="0" />

	<path
   id="path5850"
   d="m 10.204,15.734 v -3.46 h 2.543 v 0.604 h -1.84 v 0.74 H 12.6 v 0.61 h -1.693 v 0.891 h 1.923 v 0.615 z"
   inkscape:connector-curvature="0" />

	<path
   id="path5852"
   d="m 16.625,14.546 c -0.038,0.198 -0.099,0.377 -0.182,0.537 -0.083,0.16 -0.188,0.297 -0.315,0.412 -0.127,0.115 -0.273,0.203 -0.44,0.266 -0.167,0.063 -0.351,0.094 -0.553,0.094 -0.226,0 -0.437,-0.039 -0.633,-0.115 -0.196,-0.077 -0.366,-0.191 -0.508,-0.344 -0.143,-0.153 -0.254,-0.342 -0.336,-0.566 -0.082,-0.224 -0.123,-0.485 -0.123,-0.784 0,-0.292 0.037,-0.555 0.112,-0.79 0.074,-0.234 0.181,-0.433 0.32,-0.594 0.139,-0.161 0.308,-0.286 0.508,-0.373 0.2,-0.087 0.423,-0.13 0.67,-0.13 0.215,0 0.411,0.032 0.586,0.096 0.175,0.064 0.327,0.153 0.453,0.266 0.127,0.113 0.228,0.246 0.302,0.399 0.075,0.153 0.121,0.316 0.138,0.49 H 15.9 c -0.049,-0.198 -0.143,-0.352 -0.282,-0.461 -0.139,-0.109 -0.295,-0.164 -0.469,-0.164 -0.302,0 -0.525,0.109 -0.667,0.326 -0.142,0.217 -0.213,0.515 -0.213,0.894 0,0.386 0.07,0.686 0.211,0.899 0.141,0.214 0.352,0.321 0.633,0.321 0.215,0 0.388,-0.058 0.519,-0.174 0.131,-0.116 0.22,-0.284 0.269,-0.503 h 0.724 z"
   inkscape:connector-curvature="0" />

	<path
   id="path5854"
   d="m 18.235,15.734 v -2.856 h -1.042 v -0.604 h 2.814 v 0.604 H 18.96 v 2.856 z"
   inkscape:connector-curvature="0" />

</g>
    </g>
    <g
       id="g5983"
       transform="matrix(3.2678186,0,0,3.3095327,325.89633,0.98331201)">
	<g
   id="g5951">
		<path
   id="path5941"
   d="M 2.438,14.686 C 2.417,14.474 2.34,14.317 2.209,14.214 2.076,14.11 1.877,14.058 1.613,14.058 c -0.488,0 -0.732,0.168 -0.732,0.502 0,0.121 0.051,0.221 0.152,0.301 0.102,0.081 0.263,0.148 0.487,0.202 0.265,0.062 0.494,0.121 0.689,0.174 0.193,0.053 0.372,0.116 0.533,0.186 0.091,0.037 0.177,0.084 0.257,0.14 0.081,0.056 0.149,0.125 0.205,0.208 0.056,0.082 0.101,0.182 0.133,0.298 0.034,0.116 0.05,0.256 0.05,0.421 0,0.199 -0.042,0.374 -0.124,0.527 C 3.18,17.171 3.068,17.3 2.928,17.406 2.787,17.512 2.622,17.593 2.432,17.648 2.242,17.704 2.041,17.731 1.83,17.731 1.231,17.731 0.78,17.615 0.477,17.384 0.176,17.152 0.016,16.809 0,16.354 h 0.831 c 0.004,0.211 0.09,0.377 0.257,0.5 0.167,0.121 0.378,0.182 0.63,0.182 0.273,0 0.479,-0.05 0.621,-0.148 C 2.48,16.788 2.55,16.654 2.55,16.485 2.55,16.419 2.541,16.358 2.525,16.302 2.509,16.246 2.477,16.196 2.43,16.15 2.382,16.105 2.317,16.064 2.234,16.029 2.151,15.994 2.044,15.962 1.911,15.932 1.597,15.867 1.325,15.799 1.095,15.731 0.866,15.662 0.676,15.577 0.527,15.476 0.379,15.375 0.269,15.252 0.198,15.107 0.128,14.963 0.092,14.778 0.092,14.555 c 0,-0.169 0.032,-0.329 0.094,-0.478 0.062,-0.149 0.157,-0.277 0.285,-0.388 0.128,-0.11 0.287,-0.197 0.475,-0.261 0.188,-0.063 0.411,-0.096 0.667,-0.096 0.249,0 0.472,0.032 0.67,0.096 0.199,0.064 0.37,0.156 0.512,0.273 0.143,0.118 0.253,0.261 0.332,0.429 0.079,0.167 0.123,0.352 0.131,0.555 h -0.82 z"
   inkscape:connector-curvature="0" />

		<path
   id="path5943"
   d="m 5.391,17.589 v -3.4 H 4.15 v -0.72 H 7.5 v 0.72 H 6.253 v 3.4 z"
   inkscape:connector-curvature="0" />

		<path
   id="path5945"
   d="m 10.329,17.589 -0.26,-0.85 H 8.548 l -0.291,0.85 H 7.345 l 1.47,-4.12 h 0.999 l 1.451,4.12 z M 9.305,14.395 H 9.299 l -0.527,1.637 h 1.047 z"
   inkscape:connector-curvature="0" />

		<path
   id="path5947"
   d="m 14.721,17.589 v -1.061 c 0,-0.199 -0.046,-0.34 -0.136,-0.425 -0.092,-0.085 -0.261,-0.127 -0.509,-0.127 h -0.918 v 1.613 H 12.32 v -4.12 h 2.09 c 0.19,0 0.363,0.031 0.518,0.09 0.155,0.06 0.289,0.143 0.401,0.249 0.111,0.104 0.197,0.231 0.257,0.378 0.06,0.146 0.09,0.305 0.09,0.474 0,0.224 -0.053,0.422 -0.158,0.593 -0.105,0.171 -0.258,0.292 -0.456,0.362 0.182,0.058 0.312,0.147 0.388,0.267 0.076,0.12 0.115,0.301 0.115,0.54 v 1.167 z m -1.563,-3.406 v 1.098 h 1.079 c 0.232,0 0.396,-0.052 0.49,-0.155 0.095,-0.103 0.143,-0.233 0.143,-0.391 0,-0.161 -0.047,-0.293 -0.14,-0.397 -0.093,-0.103 -0.248,-0.155 -0.462,-0.155 z"
   inkscape:connector-curvature="0" />

		<path
   id="path5949"
   d="m 17.891,17.589 v -3.4 h -1.24 v -0.72 H 20 v 0.72 h -1.247 v 3.4 z"
   inkscape:connector-curvature="0" />

	</g>

	<g
   id="g5981">
		<linearGradient
   y2="0.32859999"
   x2="9.5853996"
   y1="12.2471"
   x1="9.5853996"
   gradientUnits="userSpaceOnUse"
   id="SVGID_1_-6">
			<stop
   id="stop5953"
   style="stop-color:#141414"
   offset="0" />

			<stop
   id="stop5955"
   style="stop-color:#1C1C1D"
   offset="0.2088" />

			<stop
   id="stop5957"
   style="stop-color:#333335"
   offset="0.5493" />

			<stop
   id="stop5959"
   style="stop-color:#59595D"
   offset="0.9769" />

			<stop
   id="stop5961"
   style="stop-color:#5B5B5F"
   offset="1" />

		</linearGradient>

		<path
   style="fill:url(#SVGID_1_-6)"
   id="path5964"
   d="m 3.091,12.247 c -0.582,0 -0.987,-0.445 -0.987,-1.083 V 1.412 c 0,-0.639 0.406,-1.083 0.987,-1.083 0.16,0 0.325,0.034 0.493,0.101 l 12.859,5.172 c 0.542,0.217 0.623,0.523 0.623,0.686 0,0.163 -0.081,0.468 -0.623,0.686 L 3.584,12.146 c -0.168,0.067 -0.333,0.101 -0.493,0.101 z"
   inkscape:connector-curvature="0" />

		
			<linearGradient
   gradientTransform="rotate(-90,39.00025,111.64035)"
   y2="82.2939"
   x2="150.64059"
   y1="82.2939"
   x1="138.0332"
   gradientUnits="userSpaceOnUse"
   id="SVGID_2_-1">
			<stop
   id="stop5966"
   style="stop-color:#141414"
   offset="0" />

			<stop
   id="stop5968"
   style="stop-color:#181818"
   offset="0.2261" />

			<stop
   id="stop5970"
   style="stop-color:#242425"
   offset="0.4603" />

			<stop
   id="stop5972"
   style="stop-color:#373739"
   offset="0.6982" />

			<stop
   id="stop5974"
   style="stop-color:#535356"
   offset="0.9374" />

			<stop
   id="stop5976"
   style="stop-color:#5B5B5F"
   offset="1" />

		</linearGradient>

		<path
   style="fill:url(#SVGID_2_-1)"
   id="path5979"
   d="m 2.872,12.607 c -0.607,0 -1.031,-0.47 -1.031,-1.145 V 1.145 C 1.841,0.471 2.265,0 2.872,0 3.039,0 3.212,0.036 3.385,0.106 l 13.43,5.471 c 0.566,0.231 0.651,0.554 0.651,0.727 0,0.171 -0.085,0.495 -0.651,0.726 L 3.385,12.5 c -0.173,0.072 -0.346,0.107 -0.513,0.107 z m 0,-12.077 c -0.309,0 -0.501,0.235 -0.501,0.615 v 10.317 c 0,0.379 0.192,0.615 0.501,0.615 0.098,0 0.203,-0.023 0.313,-0.068 L 16.614,6.537 c 0.265,-0.107 0.321,-0.213 0.321,-0.234 0,-0.021 -0.057,-0.127 -0.321,-0.235 L 3.186,0.598 C 3.075,0.553 2.97,0.53 2.872,0.53 Z"
   inkscape:connector-curvature="0" />

	</g>

</g>
    <g
       id="g6200"
       transform="matrix(2.6847495,0,0,2.9202335,582.09554,0.57626017)">
	<g
   id="g6126">
		
			<linearGradient
   gradientTransform="rotate(-90,28.77975,-33.62355)"
   y2="-58.143101"
   x2="-11.4326"
   y1="-58.143101"
   x1="-18.096701"
   gradientUnits="userSpaceOnUse"
   id="SVGID_1_-0">
			<stop
   id="stop6112"
   style="stop-color:#0044A1"
   offset="0.3" />

			<stop
   id="stop6114"
   style="stop-color:#5FB1DA"
   offset="1" />

		</linearGradient>

		<path
   style="fill:url(#SVGID_1_-0)"
   id="path6117"
   d="M 5.55,6.589 8.521,9.921 5.55,13.253 H 1.114 C 0.499,13.253 0,12.753 0,12.138 V 7.702 C 0,7.087 0.499,6.589 1.114,6.589 Z"
   inkscape:connector-curvature="0" />

		<linearGradient
   y2="6.5889001"
   x2="4.2607002"
   y1="13.2529"
   x1="4.2607002"
   gradientUnits="userSpaceOnUse"
   id="SVGID_2_-7">
			<stop
   id="stop6119"
   style="stop-color:#1B388A"
   offset="0.3" />

			<stop
   id="stop6121"
   style="stop-color:#5FB1DA"
   offset="1" />

		</linearGradient>

		<path
   style="fill:url(#SVGID_2_-7)"
   id="path6124"
   d="M 5.259,7.238 7.65,9.921 5.258,12.603 H 1.114 C 0.858,12.603 0.65,12.395 0.65,12.138 V 7.702 C 0.65,7.446 0.858,7.238 1.114,7.238 H 5.259 M 5.55,6.589 H 1.114 C 0.499,6.589 0,7.087 0,7.702 v 4.436 c 0,0.615 0.499,1.115 1.114,1.115 H 5.55 L 8.521,9.921 Z"
   inkscape:connector-curvature="0" />

	</g>

	<g
   id="g6150">
		<linearGradient
   y2="0.00048828131"
   x2="10"
   y1="8.5205002"
   x1="10"
   gradientUnits="userSpaceOnUse"
   id="SVGID_3_">
			<stop
   id="stop6128"
   style="stop-color:#1E1E1E"
   offset="0.3" />

			<stop
   id="stop6130"
   style="stop-color:#5B5B5F"
   offset="1" />

		</linearGradient>

		<path
   id="path6133"
   d="M 13.333,5.55 10,8.521 6.667,5.55 V 1.114 C 6.667,0.499 7.167,0 7.782,0 h 4.436 c 0.615,0 1.115,0.499 1.115,1.114 z"
   inkscape:connector-curvature="0"
   style="fill:url(#SVGID_3_)" />

		<linearGradient
   y2="0.00048828131"
   x2="10"
   y1="8.5205002"
   x1="10"
   gradientUnits="userSpaceOnUse"
   id="SVGID_4_">
			<stop
   id="stop6135"
   style="stop-color:#141414"
   offset="0" />

			<stop
   id="stop6137"
   style="stop-color:#181818"
   offset="0.2261" />

			<stop
   id="stop6139"
   style="stop-color:#242425"
   offset="0.4603" />

			<stop
   id="stop6141"
   style="stop-color:#373739"
   offset="0.6982" />

			<stop
   id="stop6143"
   style="stop-color:#535356"
   offset="0.9374" />

			<stop
   id="stop6145"
   style="stop-color:#5B5B5F"
   offset="1" />

		</linearGradient>

		<path
   id="path6148"
   d="m 12.218,0.65 c 0.256,0 0.465,0.208 0.465,0.464 V 5.259 L 10,7.649 7.317,5.259 V 1.114 C 7.317,0.858 7.526,0.65 7.782,0.65 h 4.436 m 0,-0.65 H 7.782 C 7.167,0 6.667,0.499 6.667,1.114 V 5.55 L 10,8.521 13.333,5.55 V 1.114 C 13.333,0.499 12.833,0 12.218,0 Z"
   inkscape:connector-curvature="0"
   style="fill:url(#SVGID_4_)" />

	</g>

	<g
   id="g6174">
		
			<linearGradient
   gradientTransform="rotate(180,-61.8867,-138.29005)"
   y2="-287.9014"
   x2="-133.7744"
   y1="-296.4209"
   x1="-133.7744"
   gradientUnits="userSpaceOnUse"
   id="SVGID_5_">
			<stop
   id="stop6152"
   style="stop-color:#1E1E1E"
   offset="0.3" />

			<stop
   id="stop6154"
   style="stop-color:#5B5B5F"
   offset="1" />

		</linearGradient>

		<path
   id="path6157"
   d="m 6.667,14.291 3.333,-2.97 3.333,2.97 v 4.436 c 0,0.616 -0.5,1.114 -1.115,1.114 H 7.782 c -0.615,0 -1.115,-0.498 -1.115,-1.114 z"
   inkscape:connector-curvature="0"
   style="fill:url(#SVGID_5_)" />

		<linearGradient
   y2="11.3213"
   x2="10"
   y1="19.840799"
   x1="10"
   gradientUnits="userSpaceOnUse"
   id="SVGID_6_">
			<stop
   id="stop6159"
   style="stop-color:#141414"
   offset="0" />

			<stop
   id="stop6161"
   style="stop-color:#181818"
   offset="0.2261" />

			<stop
   id="stop6163"
   style="stop-color:#242425"
   offset="0.4603" />

			<stop
   id="stop6165"
   style="stop-color:#373739"
   offset="0.6982" />

			<stop
   id="stop6167"
   style="stop-color:#535356"
   offset="0.9374" />

			<stop
   id="stop6169"
   style="stop-color:#5B5B5F"
   offset="1" />

		</linearGradient>

		<path
   id="path6172"
   d="m 10,12.19 2.683,2.392 v 4.145 c 0,0.257 -0.209,0.464 -0.465,0.464 H 7.782 c -0.256,0 -0.465,-0.207 -0.465,-0.464 V 14.582 L 10,12.19 m 0,-0.869 -3.333,2.97 v 4.436 c 0,0.616 0.5,1.114 1.115,1.114 h 4.436 c 0.615,0 1.115,-0.498 1.115,-1.114 v -4.436 z"
   inkscape:connector-curvature="0"
   style="fill:url(#SVGID_6_)" />

	</g>

	<g
   id="g6198">
		
			<linearGradient
   gradientTransform="rotate(90,-154.55325,-36.28955)"
   y2="-206.582"
   x2="-111.6743"
   y1="-206.582"
   x1="-105.0103"
   gradientUnits="userSpaceOnUse"
   id="SVGID_7_">
			<stop
   id="stop6176"
   style="stop-color:#1E1E1E"
   offset="0.3" />

			<stop
   id="stop6178"
   style="stop-color:#5B5B5F"
   offset="1" />

		</linearGradient>

		<path
   id="path6181"
   d="M 14.45,13.253 11.479,9.921 14.45,6.589 h 4.436 c 0.615,0 1.113,0.498 1.113,1.113 v 4.436 c 0,0.615 -0.498,1.115 -1.113,1.115 z"
   inkscape:connector-curvature="0"
   style="fill:url(#SVGID_7_)" />

		<linearGradient
   y2="6.5889001"
   x2="15.7393"
   y1="13.2529"
   x1="15.7393"
   gradientUnits="userSpaceOnUse"
   id="SVGID_8_">
			<stop
   id="stop6183"
   style="stop-color:#141414"
   offset="0" />

			<stop
   id="stop6185"
   style="stop-color:#181818"
   offset="0.2325" />

			<stop
   id="stop6187"
   style="stop-color:#242425"
   offset="0.4734" />

			<stop
   id="stop6189"
   style="stop-color:#373739"
   offset="0.7181" />

			<stop
   id="stop6191"
   style="stop-color:#525256"
   offset="0.9641" />

			<stop
   id="stop6193"
   style="stop-color:#57575B"
   offset="1" />

		</linearGradient>

		<path
   id="path6196"
   d="m 18.886,7.238 c 0.256,0 0.465,0.208 0.465,0.464 v 4.436 c 0,0.256 -0.209,0.465 -0.465,0.465 H 14.741 L 12.35,9.921 14.741,7.238 h 4.145 m 0,-0.649 H 14.45 l -2.971,3.332 2.971,3.332 h 4.436 c 0.615,0 1.113,-0.5 1.113,-1.115 V 7.702 c 0,-0.615 -0.498,-1.113 -1.113,-1.113 z"
   inkscape:connector-curvature="0"
   style="fill:url(#SVGID_8_)" />

	</g>

</g>
    <g
       id="g6443"
       transform="matrix(2.6388991,0,0,2.9457707,956.2178,0.57326014)">
	<g
   id="g6369">
		
			<linearGradient
   gradientTransform="rotate(90,-154.2993,-37.1201)"
   y2="-207.1631"
   x2="-110.5884"
   y1="-207.1631"
   x1="-103.9233"
   gradientUnits="userSpaceOnUse"
   id="SVGID_1_-63">
			<stop
   id="stop6355"
   style="stop-color:#0044A1"
   offset="0.3" />

			<stop
   id="stop6357"
   style="stop-color:#5FB1DA"
   offset="1" />

		</linearGradient>

		<path
   style="fill:url(#SVGID_1_-63)"
   id="path6360"
   d="M 14.453,13.255 11.482,9.922 14.453,6.59 h 4.437 c 0.615,0 1.115,0.498 1.115,1.114 v 4.437 c 0,0.615 -0.5,1.114 -1.115,1.114 z"
   inkscape:connector-curvature="0" />

		<linearGradient
   y2="6.5903001"
   x2="15.7432"
   y1="13.2554"
   x1="15.7432"
   gradientUnits="userSpaceOnUse"
   id="SVGID_2_-0">
			<stop
   id="stop6362"
   style="stop-color:#1B388A"
   offset="0.3" />

			<stop
   id="stop6364"
   style="stop-color:#5FB1DA"
   offset="1" />

		</linearGradient>

		<path
   style="fill:url(#SVGID_2_-0)"
   id="path6367"
   d="m 18.89,7.241 c 0.256,0 0.465,0.208 0.465,0.464 v 4.437 c 0,0.256 -0.209,0.465 -0.465,0.465 H 14.745 L 12.352,9.923 14.745,7.241 h 4.145 m 0,-0.651 h -4.437 l -2.971,3.332 2.971,3.333 h 4.437 c 0.615,0 1.115,-0.499 1.115,-1.114 V 7.705 c 0,-0.617 -0.5,-1.115 -1.115,-1.115 z"
   inkscape:connector-curvature="0" />

	</g>

	<g
   id="g6393">
		<linearGradient
   y2="0.00048828131"
   x2="10.002"
   y1="8.5220003"
   x1="10.002"
   gradientUnits="userSpaceOnUse"
   id="SVGID_3_-1">
			<stop
   id="stop6371"
   style="stop-color:#1E1E1E"
   offset="0.3" />

			<stop
   id="stop6373"
   style="stop-color:#5B5B5F"
   offset="1" />

		</linearGradient>

		<path
   style="fill:url(#SVGID_3_-1)"
   id="path6376"
   d="M 13.335,5.551 10.003,8.522 6.669,5.551 V 1.114 C 6.669,0.499 7.169,0 7.784,0 h 4.437 c 0.615,0 1.114,0.499 1.114,1.114 z"
   inkscape:connector-curvature="0" />

		<linearGradient
   y2="0.00048828131"
   x2="10.002"
   y1="8.5220003"
   x1="10.002"
   gradientUnits="userSpaceOnUse"
   id="SVGID_4_-3">
			<stop
   id="stop6378"
   style="stop-color:#141414"
   offset="0" />

			<stop
   id="stop6380"
   style="stop-color:#181818"
   offset="0.2261" />

			<stop
   id="stop6382"
   style="stop-color:#242425"
   offset="0.4603" />

			<stop
   id="stop6384"
   style="stop-color:#373739"
   offset="0.6982" />

			<stop
   id="stop6386"
   style="stop-color:#535356"
   offset="0.9374" />

			<stop
   id="stop6388"
   style="stop-color:#5B5B5F"
   offset="1" />

		</linearGradient>

		<path
   style="fill:url(#SVGID_4_-3)"
   id="path6391"
   d="m 12.221,0.65 c 0.256,0 0.464,0.208 0.464,0.464 V 5.26 L 10.003,7.652 7.319,5.26 V 1.114 C 7.319,0.858 7.528,0.65 7.784,0.65 h 4.437 m 0,-0.65 H 7.784 C 7.169,0 6.669,0.499 6.669,1.114 v 4.437 l 3.334,2.971 3.332,-2.971 V 1.114 C 13.335,0.499 12.836,0 12.221,0 Z"
   inkscape:connector-curvature="0" />

	</g>

	<g
   id="g6417">
		
			<linearGradient
   gradientTransform="rotate(180,-61.6328,-139.1206)"
   y2="-289.564"
   x2="-133.2686"
   y1="-298.0874"
   x1="-133.2686"
   gradientUnits="userSpaceOnUse"
   id="SVGID_5_-4">
			<stop
   id="stop6395"
   style="stop-color:#1E1E1E"
   offset="0.3" />

			<stop
   id="stop6397"
   style="stop-color:#5B5B5F"
   offset="1" />

		</linearGradient>

		<path
   style="fill:url(#SVGID_5_-4)"
   id="path6400"
   d="m 6.669,14.294 3.333,-2.972 3.333,2.972 v 4.437 c 0,0.615 -0.499,1.115 -1.114,1.115 H 7.784 c -0.615,0 -1.115,-0.5 -1.115,-1.115 z"
   inkscape:connector-curvature="0" />

		<linearGradient
   y2="11.3228"
   x2="10.002"
   y1="19.846201"
   x1="10.002"
   gradientUnits="userSpaceOnUse"
   id="SVGID_6_-7">
			<stop
   id="stop6402"
   style="stop-color:#141414"
   offset="0" />

			<stop
   id="stop6404"
   style="stop-color:#181818"
   offset="0.2261" />

			<stop
   id="stop6406"
   style="stop-color:#242425"
   offset="0.4603" />

			<stop
   id="stop6408"
   style="stop-color:#373739"
   offset="0.6982" />

			<stop
   id="stop6410"
   style="stop-color:#535356"
   offset="0.9374" />

			<stop
   id="stop6412"
   style="stop-color:#5B5B5F"
   offset="1" />

		</linearGradient>

		<path
   style="fill:url(#SVGID_6_-7)"
   id="path6415"
   d="m 10.002,12.194 2.683,2.393 v 4.145 c 0,0.256 -0.208,0.465 -0.464,0.465 H 7.784 c -0.256,0 -0.465,-0.209 -0.465,-0.465 v -4.145 l 2.683,-2.393 m 0,-0.871 -3.333,2.972 v 4.437 c 0,0.615 0.5,1.115 1.115,1.115 h 4.437 c 0.615,0 1.114,-0.5 1.114,-1.115 v -4.437 z"
   inkscape:connector-curvature="0" />

	</g>

	<g
   id="g6441">
		
			<linearGradient
   gradientTransform="rotate(-90,29.0337,-34.4541)"
   y2="-59.226601"
   x2="-12.0107"
   y1="-59.226601"
   x1="-18.6758"
   gradientUnits="userSpaceOnUse"
   id="SVGID_7_-9">
			<stop
   id="stop6419"
   style="stop-color:#1E1E1E"
   offset="0.3" />

			<stop
   id="stop6421"
   style="stop-color:#5B5B5F"
   offset="1" />

		</linearGradient>

		<path
   style="fill:url(#SVGID_7_-9)"
   id="path6424"
   d="M 5.552,6.59 8.523,9.922 5.552,13.255 H 1.114 C 0.499,13.255 0,12.756 0,12.141 V 7.705 C 0,7.088 0.499,6.59 1.114,6.59 Z"
   inkscape:connector-curvature="0" />

		<linearGradient
   y2="6.5903001"
   x2="4.2607002"
   y1="13.2554"
   x1="4.2607002"
   gradientUnits="userSpaceOnUse"
   id="SVGID_8_-6">
			<stop
   id="stop6426"
   style="stop-color:#141414"
   offset="0" />

			<stop
   id="stop6428"
   style="stop-color:#181818"
   offset="0.2261" />

			<stop
   id="stop6430"
   style="stop-color:#242425"
   offset="0.4603" />

			<stop
   id="stop6432"
   style="stop-color:#373739"
   offset="0.6982" />

			<stop
   id="stop6434"
   style="stop-color:#535356"
   offset="0.9374" />

			<stop
   id="stop6436"
   style="stop-color:#5B5B5F"
   offset="1" />

		</linearGradient>

		<path
   style="fill:url(#SVGID_8_-6)"
   id="path6439"
   d="M 5.26,7.241 7.652,9.923 5.26,12.606 H 1.114 c -0.256,0 -0.465,-0.209 -0.465,-0.465 V 7.705 c 0,-0.257 0.209,-0.464 0.465,-0.464 H 5.26 M 5.552,6.59 H 1.114 C 0.499,6.59 0,7.088 0,7.705 v 4.437 c 0,0.615 0.499,1.114 1.114,1.114 H 5.552 L 8.523,9.923 Z"
   inkscape:connector-curvature="0" />

	</g>

</g>
    <g
       id="g6573"
       transform="matrix(2.6007521,0,0,2.7822139,1074.9264,2.1834252)">
      <g
         id="g6533"
         display="none"
         style="display:none">
	<path
   id="path6531"
   d="m 158.14,70.903 c 23.665,0 42.917,19.252 42.917,42.917 0,23.664 -19.252,42.917 -42.917,42.917 -23.665,0 -42.918,-19.253 -42.918,-42.917 0,-23.664 19.253,-42.917 42.918,-42.917 m 0,-14 c -31.434,0 -56.918,25.483 -56.918,56.917 0,31.435 25.484,56.917 56.918,56.917 31.434,0 56.917,-25.482 56.917,-56.917 0,-31.433 -25.483,-56.917 -56.917,-56.917 z"
   display="inline"
   inkscape:connector-curvature="0"
   style="display:inline;fill:#cc3366" />

</g>
      <g
         id="g6552">
	<g
   id="g6548">
		<linearGradient
   y2="17.896"
   x2="9.9980001"
   y1="0"
   x1="9.9980001"
   gradientUnits="userSpaceOnUse"
   id="SVGID_1_-8">
			<stop
   id="stop6535"
   style="stop-color:#5B5B5F"
   offset="0" />

			<stop
   id="stop6537"
   style="stop-color:#59595D"
   offset="0.0231" />

			<stop
   id="stop6539"
   style="stop-color:#333335"
   offset="0.4507" />

			<stop
   id="stop6541"
   style="stop-color:#1C1C1D"
   offset="0.7912" />

			<stop
   id="stop6543"
   style="stop-color:#141414"
   offset="1" />

		</linearGradient>

		<circle
   style="fill:url(#SVGID_1_-8)"
   id="circle6546"
   r="9.9980001"
   cy="9.9980001"
   cx="9.9980001" />

	</g>

	<path
   id="path6550"
   d="m 9.998,5.177 c 2.658,0 4.82,2.163 4.82,4.82 0,2.657 -2.162,4.82 -4.82,4.82 -2.658,0 -4.819,-2.163 -4.819,-4.82 0,-2.657 2.161,-4.82 4.819,-4.82 m 0,-1.884 c -3.703,0 -6.705,3.002 -6.705,6.705 0,3.703 3.002,6.705 6.705,6.705 3.704,0 6.706,-3.002 6.706,-6.705 0,-3.703 -3.002,-6.705 -6.706,-6.705 z"
   inkscape:connector-curvature="0"
   style="fill:#cc3333" />

</g>
    </g>
    <g
       id="g6618"
       transform="matrix(2.7839344,0,0,2.7646138,1309.939,2.1204255)">
	<g
   id="g6614">
		<linearGradient
   y2="18.009199"
   x2="10.0615"
   y1="0"
   x1="10.0615"
   gradientUnits="userSpaceOnUse"
   id="SVGID_1_-1">
			<stop
   id="stop6601"
   style="stop-color:#5B5B5F"
   offset="0" />

			<stop
   id="stop6603"
   style="stop-color:#59595D"
   offset="0.0231" />

			<stop
   id="stop6605"
   style="stop-color:#333335"
   offset="0.4507" />

			<stop
   id="stop6607"
   style="stop-color:#1C1C1D"
   offset="0.7912" />

			<stop
   id="stop6609"
   style="stop-color:#141414"
   offset="1" />

		</linearGradient>

		<circle
   style="fill:url(#SVGID_1_-1)"
   id="circle6612"
   r="10.061"
   cy="10.061"
   cx="10.061" />

	</g>

	<polygon
   id="polygon6616"
   points="10.061,11.653 14.514,16.106 16.107,14.514 11.654,10.061 16.107,5.608 14.514,4.015 10.061,8.468 5.608,4.015 4.016,5.608 8.469,10.061 4.016,14.514 5.608,16.106 "
   style="fill:#6273a8" />

</g>
    <g
       id="g6726"
       transform="matrix(3.4298056,0,0,3.4531015,1627.1057,5.4839632)">
	<g
   id="g6718">
		<linearGradient
   y2="13.3794"
   x2="10"
   y1="0"
   x1="10"
   gradientUnits="userSpaceOnUse"
   id="SVGID_1_-5">
			<stop
   id="stop6686"
   style="stop-color:#5B5B5F"
   offset="0" />

			<stop
   id="stop6688"
   style="stop-color:#535356"
   offset="0.0626" />

			<stop
   id="stop6690"
   style="stop-color:#373739"
   offset="0.3018" />

			<stop
   id="stop6692"
   style="stop-color:#242425"
   offset="0.5397" />

			<stop
   id="stop6694"
   style="stop-color:#181818"
   offset="0.7739" />

			<stop
   id="stop6696"
   style="stop-color:#141414"
   offset="1" />

		</linearGradient>

		<path
   style="fill:url(#SVGID_1_-5)"
   id="path6699"
   d="m 20,10.746 c 0,5.604 -20,5.604 -20,0 V 2.563 C 0,1.147 1.147,0 2.562,0 H 17.439 C 18.853,0 20,1.147 20,2.563 Z"
   inkscape:connector-curvature="0" />

		<linearGradient
   y2="14.9492"
   x2="10"
   y1="0"
   x1="10"
   gradientUnits="userSpaceOnUse"
   id="SVGID_2_-06">
			<stop
   id="stop6701"
   style="stop-color:#5B5B5F"
   offset="0" />

			<stop
   id="stop6703"
   style="stop-color:#58585B"
   offset="0.0155" />

			<stop
   id="stop6705"
   style="stop-color:#3F3F41"
   offset="0.1488" />

			<stop
   id="stop6707"
   style="stop-color:#2C2C2D"
   offset="0.296" />

			<stop
   id="stop6709"
   style="stop-color:#1E1E1F"
   offset="0.4624" />

			<stop
   id="stop6711"
   style="stop-color:#161617"
   offset="0.6643" />

			<stop
   id="stop6713"
   style="stop-color:#141414"
   offset="1" />

		</linearGradient>

		<path
   style="fill:url(#SVGID_2_-06)"
   id="path6716"
   d="m 17.438,1.512 c 0.579,0 1.051,0.471 1.051,1.051 v 8.184 c 0,0.586 -0.802,1.235 -2.143,1.736 -1.625,0.607 -3.938,0.955 -6.347,0.955 C 7.59,13.438 5.277,13.09 3.652,12.483 2.31,11.982 1.509,11.333 1.509,10.747 V 2.563 c 0,-0.58 0.472,-1.051 1.051,-1.051 H 17.438 M 17.438,0 H 2.562 C 1.147,0 0,1.147 0,2.563 v 8.184 c 0,2.802 5,4.203 10,4.203 5,0 10,-1.401 10,-4.203 V 2.563 C 20,1.147 18.853,0 17.438,0 Z"
   inkscape:connector-curvature="0" />

	</g>

	<g
   id="g6724">
		<polygon
   id="polygon6720"
   points="9.919,10.22 9.919,8.54 6.381,8.54 6.381,2.7 4.509,2.7 4.509,10.22 "
   style="fill:#ffffff" />

		<path
   id="path6722"
   d="m 12.471,8.626 c 0.044,-0.099 0.112,-0.206 0.205,-0.322 0.175,-0.219 0.396,-0.427 0.651,-0.615 0.381,-0.273 0.711,-0.526 0.979,-0.751 0.275,-0.23 0.5,-0.462 0.67,-0.688 0.173,-0.23 0.301,-0.47 0.379,-0.711 0.076,-0.24 0.116,-0.51 0.116,-0.801 0,-0.376 -0.065,-0.712 -0.194,-0.997 C 15.146,3.454 14.963,3.212 14.729,3.021 14.499,2.834 14.219,2.692 13.898,2.599 13.585,2.508 13.236,2.462 12.862,2.462 c -0.79,0 -1.413,0.239 -1.854,0.711 -0.437,0.468 -0.658,1.121 -0.658,1.941 v 0.188 h 1.722 V 5.115 c 0,-0.42 0.078,-0.717 0.224,-0.86 0.151,-0.147 0.357,-0.22 0.632,-0.22 0.119,0 0.235,0.013 0.344,0.038 0.095,0.022 0.174,0.06 0.242,0.114 0.064,0.052 0.115,0.122 0.152,0.214 0.041,0.1 0.062,0.228 0.062,0.38 0,0.13 -0.019,0.251 -0.056,0.36 -0.035,0.108 -0.098,0.22 -0.184,0.331 C 13.396,5.59 13.269,5.718 13.111,5.853 12.947,5.992 12.737,6.151 12.483,6.328 12.017,6.662 11.636,6.98 11.35,7.274 11.06,7.572 10.83,7.871 10.669,8.164 10.505,8.46 10.394,8.766 10.337,9.07 10.28,9.367 10.253,9.69 10.253,10.03 v 0.189 h 5.238 V 8.626 Z"
   inkscape:connector-curvature="0"
   style="fill:#ffffff" />

	</g>

</g>
    <g
       id="g6846"
       transform="matrix(3.3585313,0,0,3.435765,1841.188,5.7431423)">
	<g
   id="g6838">
		<linearGradient
   y2="13.3794"
   x2="10"
   y1="0"
   x1="10"
   gradientUnits="userSpaceOnUse"
   id="SVGID_1_-07">
			<stop
   id="stop6806"
   style="stop-color:#5B5B5F"
   offset="0" />

			<stop
   id="stop6808"
   style="stop-color:#535356"
   offset="0.0626" />

			<stop
   id="stop6810"
   style="stop-color:#373739"
   offset="0.3018" />

			<stop
   id="stop6812"
   style="stop-color:#242425"
   offset="0.5397" />

			<stop
   id="stop6814"
   style="stop-color:#181818"
   offset="0.7739" />

			<stop
   id="stop6816"
   style="stop-color:#141414"
   offset="1" />

		</linearGradient>

		<path
   style="fill:url(#SVGID_1_-07)"
   id="path6819"
   d="m 20,10.746 c 0,5.604 -20,5.604 -20,0 V 2.563 C 0,1.147 1.146,0 2.562,0 H 17.438 C 18.854,0 20,1.147 20,2.563 Z"
   inkscape:connector-curvature="0" />

		<linearGradient
   y2="14.9492"
   x2="10"
   y1="0"
   x1="10"
   gradientUnits="userSpaceOnUse"
   id="SVGID_2_-78">
			<stop
   id="stop6821"
   style="stop-color:#5B5B5F"
   offset="0" />

			<stop
   id="stop6823"
   style="stop-color:#58585B"
   offset="0.0155" />

			<stop
   id="stop6825"
   style="stop-color:#3F3F41"
   offset="0.1488" />

			<stop
   id="stop6827"
   style="stop-color:#2C2C2D"
   offset="0.296" />

			<stop
   id="stop6829"
   style="stop-color:#1E1E1F"
   offset="0.4624" />

			<stop
   id="stop6831"
   style="stop-color:#161617"
   offset="0.6643" />

			<stop
   id="stop6833"
   style="stop-color:#141414"
   offset="1" />

		</linearGradient>

		<path
   style="fill:url(#SVGID_2_-78)"
   id="path6836"
   d="m 17.438,1.512 c 0.58,0 1.051,0.471 1.051,1.051 v 8.184 c 0,0.586 -0.801,1.235 -2.143,1.736 C 14.721,13.09 12.408,13.438 10,13.438 7.592,13.438 5.278,13.09 3.654,12.483 2.312,11.982 1.511,11.333 1.511,10.747 V 2.563 c 0,-0.58 0.471,-1.051 1.05,-1.051 H 17.438 M 17.438,0 H 2.562 C 1.146,0 0,1.147 0,2.563 v 8.184 c 0,2.802 5,4.203 10,4.203 5,0 10,-1.401 10,-4.203 V 2.563 C 20,1.147 18.854,0 17.438,0 Z"
   inkscape:connector-curvature="0" />

	</g>

	<g
   id="g6844">
		<path
   id="path6840"
   d="m 10.082,6.08 c 0.201,-0.326 0.303,-0.705 0.303,-1.126 0,-0.317 -0.057,-0.618 -0.17,-0.895 C 10.102,3.781 9.936,3.538 9.724,3.337 9.513,3.139 9.259,2.98 8.968,2.868 8.678,2.757 8.354,2.7 8.002,2.7 H 4.188 v 7.519 H 6.017 V 7.423 H 7.42 c 0.472,0 0.67,0.093 0.753,0.17 C 8.29,7.702 8.35,7.904 8.35,8.192 v 2.027 h 1.841 V 8.008 C 10.191,7.552 10.116,7.212 9.962,6.971 9.869,6.825 9.74,6.702 9.575,6.603 9.781,6.469 9.951,6.294 10.082,6.08 Z M 6.018,4.314 h 1.736 c 0.316,0 0.538,0.069 0.662,0.206 0.129,0.145 0.193,0.33 0.193,0.563 0,0.226 -0.064,0.405 -0.197,0.55 C 8.284,5.771 8.045,5.841 7.701,5.841 H 6.018 Z"
   inkscape:connector-curvature="0"
   style="fill:#ffffff" />

		<path
   id="path6842"
   d="M 12.791,8.626 C 12.834,8.527 12.902,8.42 12.996,8.304 13.17,8.084 13.391,7.877 13.646,7.689 14.027,7.416 14.357,7.163 14.625,6.938 14.9,6.708 15.126,6.476 15.295,6.25 15.469,6.02 15.596,5.78 15.674,5.539 15.751,5.299 15.79,5.029 15.79,4.738 15.79,4.362 15.725,4.026 15.596,3.741 15.466,3.454 15.282,3.212 15.048,3.021 14.819,2.833 14.539,2.692 14.218,2.599 13.905,2.508 13.556,2.462 13.182,2.462 c -0.79,0 -1.414,0.239 -1.854,0.711 -0.438,0.468 -0.659,1.121 -0.659,1.941 v 0.188 h 1.723 V 5.115 c 0,-0.42 0.077,-0.717 0.223,-0.86 0.151,-0.148 0.357,-0.22 0.632,-0.22 0.12,0 0.236,0.013 0.344,0.038 0.095,0.021 0.174,0.06 0.242,0.113 0.064,0.053 0.115,0.123 0.153,0.215 0.04,0.1 0.062,0.228 0.062,0.38 0,0.13 -0.02,0.251 -0.055,0.36 C 13.956,5.248 13.894,5.36 13.807,5.472 13.715,5.59 13.588,5.718 13.43,5.853 13.267,5.992 13.056,6.151 12.803,6.328 12.336,6.662 11.955,6.98 11.669,7.274 11.379,7.572 11.15,7.871 10.988,8.164 10.825,8.46 10.714,8.765 10.656,9.07 10.6,9.367 10.572,9.69 10.572,10.03 v 0.188 h 5.239 V 8.626 Z"
   inkscape:connector-curvature="0"
   style="fill:#ffffff" />

	</g>

</g>
  </g>
</svg>
