<svg width="566.928" height="234.744" xmlns="http://www.w3.org/2000/svg">

 <g>
  <title>background</title>
  <rect fill="none" id="canvas_background" height="402" width="582" y="-1" x="-1"/>
 </g>
 <g>
  <title>Layer 1</title>
  <rect fill-opacity="0" height="234.744" width="566.928" fill="#fcfcf9" y="-4" x="1.536" id="rect3604"/>
  <path stroke="#050504" d="m38.726,197.467l43.064,-169.511l39.932,0l20.749,73.991l21.531,-73.991l37.583,0l35.233,124.883l85.965,-0.162c9.023,-0.088 9.577,-18.748 -0.669,-18.744l-50.063,-0.668c-21.497,0.207 -44.167,-23.05 -43.063,-54.024c0.229,-28.412 25.004,-50.786 56.698,-50.778l127.69,-0.114l32.494,44.238l31.709,-44.629l52.85,0.392l-57.938,81.428l62.637,88.292l-52.572,-0.161l-36.457,-50.662l-34.68,50.662l-53.633,-0.048l61.072,-87.3l-26.623,-38.757l-110.999,0.162c-12.114,0.111 -11.669,19.169 0.095,18.812l46.768,0.716c19.767,0.127 47.604,20.668 46.911,52.736c0.301,37.279 -33.275,54.312 -49.441,53.401l-122.419,0.163l-20.357,-76.271l-20.357,76.108l-38.644,0l-21.255,-75.718l-18.677,75.833l-45.134,-0.279z" fill="#020202" id="path2830"/>
 </g>
</svg>