<svg width="566.929" height="220" xmlns="http://www.w3.org/2000/svg">

 <g>
  <title>background</title>
  <rect fill="none" id="canvas_background" height="222" width="568.929" y="-1" x="-1"/>
 </g>
 <g>
  <title>Layer 1</title>
  <path stroke="null" id="svg_1" d="m13,17l0,12.574726l104.901838,0l0,-12.574726l-104.901838,0zm119.763692,0l0,12.574726l149.490252,0c0,0 -15.270617,-12.574726 -35.493918,-12.574726l-113.996334,0zm178.814704,0l0,12.574726l90.440191,0l-5.368101,-12.574726l-85.07209,0zm155.280424,0l-5.36715,12.574726l89.616962,0l0,-12.574726l-84.249811,0zm-453.85882,24.451711l0,12.574726l104.901838,0l0,-12.574726l-104.901838,0zm119.763692,0.017828l0,12.555277l166.837954,0c0,0 -1.950654,-9.676793 -5.347188,-12.555277l-161.490767,0zm178.814704,0l0,12.555277l100.356015,0l-4.970746,-12.555277l-95.38527,0zm144.543272,0l-4.968844,12.555277l99.952956,0l0,-12.555277l-94.984112,0zm-412.975888,24.433883l0,12.589313l45.430656,0l0,-12.589313l-45.430656,0zm119.764642,0l0,12.589313l45.429705,0l0,-12.589313l-45.429705,0zm89.618863,0l0,12.589313l45.429705,0c0,0 2.884154,-6.649199 2.884154,-12.589313l-48.313859,0zm89.195841,0l0,12.589313l80.54528,0l-5.369052,-12.589313l-75.176228,0zm104.502581,0l-5.389965,12.589313l80.944536,0l0,-12.589313l-75.554571,0zm-403.081927,24.47035l0,12.574726l45.430656,0l0,-12.574726l-45.430656,0zm119.764642,0l0,12.574726l116.038247,0c0,0 9.70669,-6.451466 12.799979,-12.574726l-128.838226,0zm178.814704,0l0,12.574726l45.430656,0l0,-7.000906l2.883204,7.000096l83.219349,0l3.09519,-7.000096l0,7.000096l45.428755,0l0,-12.573916l-85.280274,0l-4.52681,10.651685l-4.546773,-10.651685l-85.703296,0zm-298.579346,24.451711l0,12.574726l45.430656,0l0,-12.574726l-45.430656,0zm119.764642,0l0,12.574726l128.839176,0c-3.09519,-6.10138 -12.799979,-12.574726 -12.799979,-12.574726l-116.039198,0zm178.814704,0l0,12.574726l45.430656,0l0,-12.574726l-45.430656,0zm53.683861,0l5.493582,12.574726l62.399064,0l5.220756,-12.574726l-73.113402,0zm80.944536,0l0,12.574726l45.428755,0l0,-12.574726l-45.428755,0zm-433.207744,24.451711l0,12.573105l45.430656,0l0,-12.573105l-45.430656,0zm119.764642,0l0,12.573105l45.429705,0l0,-12.573105l-45.429705,0zm89.618863,0l0,12.573105l48.313859,0c0,-5.93363 -2.884154,-12.573105 -2.884154,-12.573105l-45.429705,0zm89.195841,0l0,12.573105l45.430656,0l0,-12.573105l-45.430656,0zm63.998943,0l5.325323,12.573105l41.832593,0l5.3662,-12.573105l-52.524116,0zm70.629455,0l0,12.573105l45.428755,0l0,-12.573105l-45.428755,0zm-462.533146,24.453332l0,12.590934l104.902788,0l0,-12.590934l-104.902788,0zm118.943314,0l0,12.590934l161.490767,0c3.396534,-2.885777 5.347188,-12.590934 5.347188,-12.590934l-166.837954,0zm179.637933,0l0,12.590934l74.757009,0l0,-12.590934l-74.757009,0zm103.658438,0l5.473619,12.590934l21.283232,0l5.137102,-12.590934l-31.893954,0zm60.293461,0l0,12.590934l75.575485,0l0,-12.590934l-75.575485,0zm-462.533146,24.46873l0,12.574726l104.902788,0l0,-12.574726l-104.902788,0zm118.943314,0l0,12.555277l113.996334,0c20.224251,0 35.493918,-12.555277 35.493918,-12.555277l-149.490252,0zm179.637933,0l0,12.574726l74.757009,0l0,-12.574726l-74.757009,0zm114.037211,0l5.261633,12.539879l0.905932,0.017018l5.347188,-12.555277l-11.514752,-0.001621l0,0zm49.914688,0l0,12.574726l75.575485,0l0,-12.574726l-75.575485,0z" fill="#1F70C1"/>
 </g>
</svg>