<svg width="566.936" height="230" xmlns="http://www.w3.org/2000/svg">

 <g>
  <title>background</title>
  <rect fill="none" id="canvas_background" height="232" width="568.936" y="-1" x="-1"/>
 </g>
 <g>
  <title>Layer 1</title>
  <g stroke="null" id="svg_1">
   <g stroke="null" id="svg_2">
    <path stroke="null" id="svg_3" d="m56.899968,166.027346c-0.39,0 -0.787,-0.069394 -1.161,-0.213703c-37.979,-14.536502 -57.589,-31.481298 -56.711,-49.00727c0.714,-14.42768 15.645,-28.049441 43.177,-39.396177c26.123,-10.763983 62.969,-19.305775 106.557,-24.705903c1.454,-0.179005 2.815,0.604045 3.043,1.749049c0.229,1.145004 -0.764,2.218248 -2.217,2.399619c-88.293,10.934314 -143.944,33.970814 -145.238,60.119801c-0.777,15.504078 18.299,31.508898 53.715,45.063631c1.323,0.507839 1.875,1.7593 1.233,2.80731c-0.462,0.747565 -1.41,1.183644 -2.398,1.183644z" fill="#FF0000"/>
   </g>
   <g stroke="null" id="svg_4">
    <path stroke="null" id="svg_5" d="m387.978968,58.389096c-0.145,0 -0.289,-0.008674 -0.436,-0.0276c-28.057,-3.632154 -57.67,-6.057007 -88.023,-7.202011c-1.471,-0.054411 -2.604,-1.038547 -2.533,-2.197745c0.07,-1.157621 1.341,-2.041608 2.787,-1.995871c30.558,1.153678 60.379,3.593514 88.636,7.251691c1.448,0.18768 2.434,1.267232 2.194,2.413025c-0.216,1.029084 -1.343,1.758511 -2.625,1.758511z" fill="#FF0000"/>
   </g>
   <g stroke="null" id="svg_6">
    <path stroke="null" id="svg_7" d="m304.159968,201.803198c-0.746,0 -1.486,0 -2.232,-0.002366c-1.471,-0.002366 -2.655,-0.944707 -2.651,-2.105482c0.004,-1.157621 1.19,-2.092077 2.658,-2.092077c0.004,0 0.008,0 0.012,0c0.731,0.001577 1.479,0.001577 2.215,0.001577c142.504,0.001577 254.953,-29.208639 256.436,-66.74931c0.521,-13.13679 -12.862,-26.465203 -38.709,-38.53979c-25.735,-12.026484 -62.619,-22.277107 -106.66,-29.641564c-1.438,-0.241302 -2.356,-1.356341 -2.053,-2.489516c0.303,-1.134752 1.721,-1.856294 3.158,-1.618146c44.6,7.459085 82.039,17.88004 108.27,30.136786c27.615,12.904162 41.902,27.52583 41.316,42.283132c-0.787,19.963442 -28.754,38.162853 -78.748,51.236558c-48.338,12.639203 -113.256,19.580197 -183.012,19.580197z" fill="#FF0000"/>
   </g>
   <polygon stroke="null" id="svg_8" points="352.381956577301,92.48450708389282 422.6809678077698,50.228182315826416 340.1139817237854,76.21788263320923 316.9099717140198,57.1723313331604 324.307981967926,83.56341028213501 254.00897073745728,125.81815576553345 336.579954624176,99.82136011123657 359.7799668312073,118.86769342422485 " fill="#FF0000"/>
   <g stroke="null" id="svg_9">
    <path stroke="null" id="svg_10" d="m264.342968,145.23354c1.008,-3.912097 2.846,-3.343538 7.877,-3.973605l4.683,-0.581965l-1.458,6.157944l-4.683,0.58985c-5.031,0.629279 -7.246,1.690694 -6.419,-2.192225zm-10.153,-5.6367l-3.645,15.460707c-0.998,4.222005 0.62,5.5815 5.772,4.938815l29.831,-3.731514l6.394,-27.115774l-29.833,3.725994c-5.154,0.644262 -7.53,2.501345 -8.519,6.721772zm189.368,-24.406247l-0.348,1.495129l30.77,-3.852165c2.429,-0.307542 4.796,-2.243482 5.291,-4.337136c0.486,-2.092077 -1.075,-3.542257 -3.506,-3.236292l-7.903,0.984136l-12.609,1.58266l-3.195,0.394285c-3.695,0.466045 -7.75,3.78908 -8.5,6.969383zm-215.887,69.921728l0.25,-1.077975c1.058,0.063086 2.476,0.385611 3.714,0.239725l31.98,-3.955468c-1.188,5.031078 -9.615,6.292001 -22.475,7.899107l-14.637,1.833426l-7.848,33.279238l19.23,-2.402773c47.345,-3.684988 65.357,-22.9813 71.138,-45.983892l57.688,-7.21936l9.295,-39.445068l4.692,-0.591428c5.142,-0.642685 4.384,-1.376844 3.396,2.836487l-8.508,36.092068l41.416,-5.182483l0.567,-2.391733c3.126,1.08665 6.779,1.470683 10.646,0.992021l71.625,-8.958946l6.68,-28.351463l-4.643,-2.607013c4.023,-3.75596 7.158,-8.353324 8.066,-12.211009l1.129,-4.471193c3.573,-16.723208 -15.978,-21.163646 -24.9,-20.045454l-41.104,5.142266c-7.279,0.911587 -15.295,4.912004 -21.127,10.211195c-5.394,-4.212542 -13.72,-5.849613 -18.562,-5.243203l-45.76,5.724231l5.123,8.928191l41.27,-5.157249c5.951,-0.747565 9.928,1.126078 11.018,4.841821c-0.438,0.984136 -11.018,45.405082 -11.018,45.405082l-14.797,1.852351l7.934,-33.628575c0.982,-4.211753 -0.633,-5.573614 -5.771,-4.928564l-28.357,3.550931l-9.303,39.445068l-16.266,2.041608l10.645,-45.162202l-13.391,-12.456254l-48.203,13.740835l22.846,-2.858567l0.369,-0.040217l-14.527,61.63149c-3.692,15.656272 -24.878,30.627277 -43.669,32.98037l-19.229,2.402773l2.916,-12.334026l14.627,-1.823963c12.859,-1.614203 27.336,-11.762313 29.833,-22.375678l1.578,-6.677612l-38.09,4.763752c-8.167,1.023564 -12.6,-2.889321 -10.993,-9.692316l6.83,-28.973645c1.208,-5.148575 5.282,-9.423413 10.733,-11.645604l0.09,-0.77201l19.109,-11.597501l-11.163,1.480146c-5.94,0.739679 -16.953,4.25197 -23.951,11.289959c-5.292,-4.978243 -14.547,-6.928377 -19.759,-6.27623l-41.055,5.142266l6.69,-28.359349l29.953,-3.747285c15.944,-1.991928 33.586,-16.132568 36.721,-29.414456l4.503,-19.108632c3.135,-13.290562 -8.716,-23.738328 -24.661,-21.745611l-65.457,8.188513l-13.948,59.175094l-60.275,7.542674c-5.102,0.638742 -10.064,4.606038 -11.062,8.856432l-22.527,95.53843c-0.999,4.253547 2.326,7.18624 7.429,6.553018l115.008,-14.392983l9.305,-39.445068l4.682,-0.58985c5.152,-0.637953 4.393,-1.368169 3.395,2.842007l-8.506,36.082605l41.423,-5.183272zm-85.343,-21.627325l-38.459,4.811067l1.448,-6.157156l31.061,-3.893171l7.558,-32.052223l-31.061,3.891594l1.447,-6.162676l38.459,-4.812644l-10.453,44.375209zm-2.327,9.865013l-3.195,13.557098l-68.042,8.511826l21.207,-89.991627l56.211,-7.030892l-2.906,12.329295l-39.937,5.001112l-6.1,25.887181l32.539,-4.070599l-2.905,12.322986l-32.539,4.070599l-6.11,25.89349l51.777,-6.48047zm78.156,3.387697l-16.274,2.027414l7.927,-33.618323c0.999,-4.214119 -0.619,-5.5815 -5.771,-4.938026l-28.355,3.55172l-9.294,39.445068l-16.275,2.039242l12.201,-51.771209l0.379,-0.04968l53.984,-6.752526c8.167,-1.024353 12.6,2.879858 10.993,9.690739l-9.515,40.375581zm105.761,-63.48463l15.905,-1.984043l-12.211,51.771209l-16.266,2.032934l12.199,-51.766477l0.373,-0.053623zm98.685,24.400727l5.648,-23.950453c1.791,-7.573428 12.113,-15.014376 20.908,-16.116797l38.049,-4.75429c6.412,-0.80513 10.865,4.841821 9.557,10.367332l-1.866,7.707485c-1.31,5.527088 -8.468,11.401147 -14.875,12.203912l-39.498,4.945124l-0.568,2.795481c-0.75,3.178726 1.926,5.661934 5.621,5.197466l44.147,-5.543648l-2.975,12.632894l-49.801,6.22655c-8.796,1.09769 -16.124,-4.131319 -14.347,-11.711056zm-235.397,-67.119938l5.522,-23.4229l20.707,-2.590453c2.716,-0.339085 4.104,0.88241 3.564,3.140875l-3.774,16.030843c-0.54,2.267139 -2.596,3.912097 -5.312,4.251182l-20.707,2.590453z" fill="#FF0000"/>
    <g stroke="null" id="svg_11">
     <path stroke="null" id="svg_12" d="m319.564968,81.493413l-4.395,-13.730584l-2.479,0.235782l-0.797,3.385332c-0.551,2.347573 -2.943,4.258279 -5.752,4.614713l-17.015,2.125197c-2.808,0.354068 -4.414,-1.062993 -3.862,-3.408989l8.575,-36.36649c0.55,-2.338111 2.943,-4.25197 5.748,-4.606038l17.019,-2.125197c2.807,-0.353279 4.412,1.063781 3.858,3.401103l-1.098,4.628907l34.396,-4.30717l1.307,-5.54286c3.296,-13.990023 -8.766,-24.626258 -25.561,-22.532604l-32.906,4.118702c-16.783,2.102328 -34.754,16.494522 -38.048,30.484545l-9.154,38.831561c-3.295,13.990023 8.766,24.626258 25.56,22.524718l11,-1.369746l33.604,-20.360882z" fill="#FF0000"/>
     <path stroke="null" id="svg_13" d="m343.945968,73.210272c0.898,-1.905186 1.519,-2.629093 1.979,-4.58317l1.168,-4.936449l-13.688,1.715929l10.541,7.80369z" fill="#FF0000"/>
    </g>
   </g>
  </g>
 </g>
</svg>